<svg width="2147" height="551" viewBox="0 0 2147 551" xmlns="http://www.w3.org/2000/svg" xmlns:xlink="http://www.w3.org/1999/xlink">
    <g id="New-Group-copy">
        <g id="SK-KlubbmrkeenfrgRGBrensad">
            <path id="Path" fill="#2d68b2" stroke="none" d="M 56.788258 0.308838 L 433.338074 1.182495 L 484.010681 91.170013 C 484.010681 91.170013 398.391449 220.472504 491 361.132629 L 482.263336 375.984985 L 467.411041 396.952942 L 459.839844 408.019653 L 448.190399 420.250977 L 432.464417 434.811493 L 415.573822 448.208252 L 402.177948 458.109528 L 378.879883 473.252777 L 345.09787 488.97876 L 325.29538 497.133545 L 312.481293 502.375519 L 295.590759 508.199402 L 284.814941 513.441406 L 276.661011 518.101501 L 272.583618 520.430725 L 266.759796 525.964478 L 262.682373 530.914673 L 258.89679 537.322144 L 256.566711 541.398682 L 254.819382 546.058777 L 252.19838 548.388 L 248.121002 547.806152 L 243.170822 547.806152 L 241.131668 543.72876 L 235.59874 536.156677 L 231.812286 531.497437 L 226.570297 524.799011 L 220.45462 519.266113 L 212.591629 513.733154 L 204.14592 508.199402 L 196.865662 504.413788 L 189.585403 500.628204 L 179.392349 496.841736 L 168.617432 492.765198 L 155.512451 487.523224 L 143.281143 483.154877 L 132.79715 477.912903 L 120.856758 472.961853 L 107.169052 464.807922 L 102.218864 461.021454 L 95.229538 456.944916 L 83.871887 449.663818 L 71.931503 440.345276 L 59.991116 429.569489 L 48.050728 417.338196 L 43.392342 412.678894 L 38.733086 407.727844 L 33.200161 401.612183 L 26.7927 393.458252 L 21.550707 386.178009 L 17.47331 379.770569 L 11.940386 370.742981 L 6.989324 363.462708 L 7.572059 360.549927 C 7.572059 360.549927 89.987541 233.577484 -0 91.170013 L 56.788258 0.308838 Z"/>
            <path id="path1" fill="#ffffff" stroke="none" d="M 64.651245 8.171814 L 427.222412 10.355957 L 474.40036 94.227844 C 474.40036 94.227844 388.781128 214.356842 478.768677 362.880005 L 478.768677 365.500977 L 469.158356 379.770569 L 461.004425 390.254547 L 452.558716 399.864868 L 442.074738 413.261658 L 431.299805 424.619293 L 419.65036 434.229614 L 404.798065 445.878204 L 391.40213 454.032135 L 373.637878 464.225189 L 355.290924 473.544556 L 342.476868 479.077515 L 327.624542 484.028564 L 313.063171 490.43515 L 296.755341 496.841736 L 285.688599 501.501862 L 281.320282 504.996521 L 272.000916 509.946716 C 272.000916 509.946716 253.653931 526.838135 248.411926 536.448486 C 248.411926 536.448486 242.878998 527.711853 237.927948 521.887085 C 237.927948 521.887085 230.64769 512.859497 217.542709 505.287476 L 201.816727 497.133545 L 190.75 493.056152 L 179.683289 488.396881 L 165.704636 484.028564 L 155.512451 479.077515 L 143.281143 473.544556 L 131.923492 468.593506 L 125.22509 465.098846 L 115.905708 459.856873 L 105.713524 453.741211 L 94.064941 447.042816 L 88.240211 442.383545 L 80.086296 436.267883 L 71.058708 429.569489 L 64.360313 423.453827 L 57.952854 417.047241 L 50.089863 408.893311 L 45.138802 402.48587 L 38.149479 393.749207 L 31.451084 385.012573 L 27.665491 378.896912 L 23.297165 373.363953 L 20.385237 368.121979 L 18.055172 365.791931 L 18.055172 363.462708 C 18.055172 363.462708 100.471527 223.967163 10.774917 91.170013 L 64.651245 8.171814 Z"/>
            <path id="path2" fill="#2d68b2" stroke="none" d="M 73.09697 17.782104 L 421.39859 20.112183 L 463.916382 95.247406 C 463.916382 95.247406 371.682617 212.542236 467.629456 362.880005 L 467.993774 366.374634 L 461.950623 374.674469 L 455.179718 383.411133 L 449.064056 389.963623 L 437.99823 401.903992 L 430.135223 410.349731 L 420.233978 419.377319 L 413.826508 424.911102 L 405.672607 431.317688 L 394.024017 440.345276 L 381.209961 447.917328 L 370.435059 453.450256 L 357.038239 459.565918 L 344.225067 465.390625 L 333.44928 469.758972 L 322.383453 474.127289 L 311.607635 478.495605 L 301.123657 483.446686 L 291.513336 487.815002 L 281.321167 492.765198 L 271.128113 498.298981 C 271.128113 498.298981 248.704605 516.645996 247.248215 521.305237 C 247.248215 521.305237 240.258011 506.161987 232.686829 502.084595 L 221.620102 494.804321 L 208.515121 488.105957 L 193.080078 482.572998 L 175.89769 475.291901 L 161.04538 469.468018 C 161.04538 469.468018 96.976868 437.142426 97.850533 433.647766 C 97.850533 433.647766 72.806038 415.59259 73.09697 414.427124 L 65.233978 407.72876 L 57.080059 400.73941 L 48.925266 391.419983 C 48.925266 391.419983 29.121891 367.540985 29.704626 364.628174 C 29.704626 364.628174 66.689507 299.103271 64.359444 223.385315 C 64.359444 223.385315 72.805168 173.877319 24.17083 93.500092 L 73.09697 17.782104 Z"/>
            <path id="path3" fill="#ffffff" stroke="none" d="M 245.5 102.090851 C 242.878998 106.022339 241.131668 110.390656 238.558716 114.86908 C 237.458771 116.895111 236.241776 119.135193 234.919037 121.570099 C 201.853424 182.443604 102.655693 365.064148 102.655693 365.064148 L 140.660141 365.500977 L 174.733093 298.811462 L 322.674377 299.68512 L 358.785583 366.08371 L 395.770477 365.791931 C 395.770477 365.791931 264.868286 136.079071 247.414215 105.450958 C 246.168365 103.262421 245.5 102.090851 245.5 102.090851 Z"/>
            <path id="path4" fill="#2d68b2" stroke="none" d="M 246.082733 162.810577 L 190.75 268.233185 L 304.327393 269.106842 Z"/>
            <path id="path5" fill="#ffffff" stroke="none" d="M 231.812286 224.549896 L 228.609421 226.879089 L 224.241089 230.373779 L 222.20195 233.868439 L 221.037369 236.853729 L 220.382111 240.129974 L 220.163696 245.371979 L 221.037369 249.303467 L 222.34787 252.142883 L 224.532028 256.074371 L 227.15303 260.442719 L 229.992432 263.282104 L 231.521347 264.155792 L 247.24733 264.374207 L 244.626328 261.097961 L 241.568512 257.166473 L 239.165924 254.327057 L 238.510681 251.269226 L 238.292267 247.992981 L 238.510681 244.716736 L 239.821167 242.095734 L 242.005341 239.474731 L 245.281586 237.727417 L 248.121002 237.508972 L 249.649918 238.38266 L 252.270905 239.91156 L 254.455078 241.877319 L 256.420807 245.590393 L 258.386566 248.866638 L 261.225983 253.962738 L 274.040009 246.973419 L 274.040009 244.352417 L 269.671692 238.236755 L 265.886108 233.28656 L 262.09964 229.500092 L 258.023132 226.005432 L 255.693054 223.38443 L 253.362991 222.219849 L 247.830063 221.346161 L 240.258011 221.055267 L 234.433289 223.093506 Z"/>
            <path id="path6" fill="#ffffff" stroke="none" d="M 253.144577 302.597046 L 271.928375 303.252319 L 273.457306 307.620636 L 274.986206 311.988953 L 276.078278 315.920471 L 275.641449 321.162476 L 275.423035 326.404449 L 273.894135 330.554352 C 273.894135 330.554352 270.836304 335.359497 270.836304 335.577942 C 270.836304 335.796356 268.433716 338.635742 268.433716 338.635742 L 266.031128 341.03833 L 262.754883 343.877747 L 258.168152 346.13446 L 252.926163 348.173584 L 248.994659 348.610413 L 243.315842 348.755432 L 237.927948 348.610413 L 233.559616 347.881775 L 229.045364 346.426239 L 225.404816 344.242065 L 221.765121 341.912018 L 218.416367 338.708282 L 215.212631 335.213623 L 213.028473 331.718964 L 210.990219 327.787476 L 209.388794 324.292786 L 208.951965 322.83728 L 218.271347 314.974274 L 220.164581 314.682495 L 221.620972 316.575714 L 223.514221 320.944031 L 224.678802 323.419128 L 225.552475 325.603302 L 227.299805 327.350647 L 229.338074 329.826599 L 232.541794 332.884399 L 235.599625 334.631744 L 240.113846 336.233185 L 249.433258 336.524109 L 253.073807 335.505432 L 255.25798 333.02948 L 257.442139 330.117523 L 258.752625 326.622864 L 259.771332 323.419128 L 260.352325 320.070374 L 259.769592 316.866638 L 258.60498 313.663757 L 257.14859 310.314148 L 255.40126 306.965393 L 253.144577 302.597046 Z"/>
            <path id="path7" fill="#ffffff" stroke="none" d="M 207.345291 77.618591 C 207.932388 85.92804 198.322067 91.170013 191.332733 91.170013 C 186.964417 91.170013 183.469757 89.422699 181.722427 85.054352 C 178.227753 76.317719 183.469757 66.707397 192.206406 64.960052 C 196.574738 64.086395 200.943054 65.83371 203.968567 68.943115 C 206.223495 71.127289 207.531372 74.192078 207.345291 77.618591 Z"/>
            <path id="path8" fill="#ffffff" stroke="none" d="M 314.735382 81.509888 C 313.645905 89.422699 305.782928 95.53833 297.919922 94.664673 C 290.056946 92.917358 285.688599 85.92804 287.435944 78.065033 C 290.056946 68.454712 304.035583 66.707397 311.073822 72.761017 C 313.444946 74.967896 314.853302 78.060669 314.735382 81.509888 Z"/>
            <path id="path9" fill="#ffffff" stroke="none" d="M 167.743774 178.245667 L 158.716187 172.130005 L 151.144135 165.722534 L 145.611206 160.48053 L 143.863876 156.98587 L 141.533813 152.617554 L 140.660141 147.958282 L 140.660141 137.765228 L 141.242889 128.154907 L 141.242889 121.165588 C 141.242889 121.165588 140.660141 114.467194 131.923492 118.544586 L 129.593414 121.456512 L 127.555161 126.407562 L 126.098755 130.775909 L 124.060501 134.270569 L 122.604088 136.891571 L 120.565834 136.600616 L 117.944839 134.270569 L 115.614769 131.066833 L 113.576515 126.698517 L 112.411926 121.456512 L 111.538254 116.214539 L 110.081848 111.846191 L 109.208183 108.060608 L 107.751785 104.274994 L 104.839859 100.780334 C 104.839859 100.780334 98.724197 95.829285 97.559601 101.944946 L 96.395004 105.439606 L 96.103203 110.390656 L 96.394135 115.049927 L 96.394135 119.418243 L 95.52047 123.495636 L 94.646805 125.533905 L 92.899475 125.533905 L 87.657478 122.33017 C 87.657478 122.33017 76.008896 113.593536 73.0961 108.351532 L 67.27224 104.274994 L 60.865654 101.363068 L 53.5854 100.48941 L 51.838066 102.527679 L 49.798931 105.731384 L 50.089863 109.226044 L 50.380795 111.847046 C 54.458191 115.63266 57.370117 117.671814 57.370117 117.671814 L 61.447514 122.040131 L 67.563171 129.320374 L 71.931503 136.018768 L 76.591629 144.463623 L 80.959961 151.452942 L 84.745552 159.898682 L 87.366547 166.014343 L 88.822945 170.38266 L 91.443947 172.420898 L 95.521339 174.168243 C 95.521339 174.168243 107.461731 177.08017 107.752655 177.08017 L 113.285591 179.118439 L 123.47776 181.157562 L 138.330063 185.816833 L 147.358536 189.894226 L 156.0952 193.097961 L 162.210861 195.42804 L 168.035583 196.010742 L 170.65657 195.42804 C 170.65657 195.42804 176.189499 191.641541 176.481308 186.9823 C 176.481308 186.9823 175.899445 180.866638 170.94838 179.992981 L 167.743774 178.245667 Z"/>
            <path id="path10" fill="#ffffff" stroke="none" d="M 324.130768 180.574829 C 324.130768 180.574829 311.317596 198.921814 331.993774 196.883545 L 336.653015 196.009888 L 347.137024 192.515228 L 358.203735 188.146881 L 365.774902 185.525879 L 375.677032 182.322174 L 381.500885 180.283905 L 389.072968 178.53656 C 389.072968 178.53656 401.30426 174.751007 405.672607 164.266998 L 407.128998 161.93692 L 409.167267 158.151337 L 410.331848 153.200256 C 410.331848 153.200256 413.827393 145.920044 416.739319 142.133545 L 420.815826 135.726959 L 424.310486 130.775909 L 428.970642 124.660248 L 432.756226 118.83551 L 438.289124 113.593536 L 440.619232 108.934265 L 442.94928 105.439606 C 442.94928 105.439606 447.025787 99.614868 438.871887 99.03302 L 435.377228 99.906677 L 429.261566 101.363068 L 422.563141 103.98407 L 417.612976 108.643341 L 412.95282 113.302582 L 406.255341 120.000977 L 403.051605 122.912903 L 399.265991 125.533905 C 399.265991 125.533905 391.111206 129.319519 391.111206 121.165588 L 391.403015 116.214539 L 391.984863 112.428925 L 391.984863 103.692261 C 391.984863 103.692261 391.693085 98.450287 387.616547 95.53833 L 384.70462 98.450287 L 382.666351 102.527679 L 380.336304 109.516998 L 378.298035 115.923584 L 376.258881 122.912903 L 374.511566 130.193176 L 373.346985 134.561493 L 371.308716 138.056152 L 369.561371 140.968079 L 366.940369 143.006348 L 363.736664 142.423615 L 362.572052 139.221619 L 361.989319 133.688721 L 360.824738 125.53479 C 360.824738 125.53479 359.077393 118.836395 353.252686 117.089081 L 349.757996 118.836395 L 347.427917 120.874634 L 346.55426 125.533905 L 347.137024 149.413818 L 346.55426 155.52948 L 344.225067 160.48053 C 344.225067 160.48053 343.933258 168.63446 335.196594 172.420898 L 329.663696 176.206512 L 326.459961 178.244781 L 324.130768 180.574829 Z"/>
            <path id="path11" fill="#ffffff" stroke="none" d="M 186.964417 380.062347 L 186.381668 455.488525 L 210.262451 455.488525 L 210.262451 433.064148 L 247.830063 412.096191 L 281.903015 455.197601 L 306.948395 456.071259 L 306.948395 454.614868 L 266.759796 401.612183 L 301.997314 380.353271 L 263.265137 380.062347 L 210.844299 411.514313 L 209.970642 380.062347 Z"/>
        </g>
        <g id="Text">
            <path id="Skidkning--Cykling--Simning--Lpning" fill="#000000" fill-rule="evenodd" stroke="none" d="M 1667.898438 501.359924 C 1662.389771 501.359924 1658.151367 500.905334 1655.183105 499.996124 C 1652.214844 499.086945 1650.730713 497.134857 1650.730713 494.139862 C 1650.730713 491.733154 1651.359131 489.647369 1652.615967 487.882446 C 1653.872803 486.117554 1655.463867 484.72702 1657.389282 483.710846 C 1655.945313 483.28299 1654.835571 482.614471 1654.060059 481.705261 C 1653.284546 480.796082 1652.896729 479.806671 1652.896729 478.73703 C 1652.896729 477.132568 1653.297852 475.742035 1654.100098 474.56543 C 1654.902344 473.388824 1656.212646 471.971558 1658.031006 470.313599 C 1656.212646 468.923065 1654.862305 467.17157 1653.979858 465.05899 C 1653.09729 462.946442 1652.656128 460.098572 1652.656128 456.515259 C 1652.656128 451.113525 1653.765869 447.00885 1655.985352 444.201019 C 1658.204834 441.393188 1661.453857 439.989319 1665.732422 439.989319 C 1668.192627 439.989319 1670.198242 440.417145 1671.749146 441.272888 C 1673.300171 442.128601 1674.476807 443.41214 1675.279053 445.123596 C 1675.653442 444.535278 1676.442261 443.746429 1677.64563 442.756989 C 1678.848999 441.767578 1680.145874 440.951965 1681.536377 440.310181 L 1682.819946 439.748627 L 1684.985962 445.284027 C 1683.916382 445.497955 1682.432251 445.952545 1680.533569 446.647827 C 1678.63501 447.343079 1677.498535 447.877899 1677.124146 448.252258 C 1677.498535 449.214966 1677.832764 450.552002 1678.126953 452.263428 C 1678.421143 453.974854 1678.568115 455.472351 1678.568115 456.75592 C 1678.568115 461.836731 1677.578735 465.781006 1675.599854 468.588806 C 1673.621094 471.396637 1670.331909 472.800537 1665.732422 472.800537 C 1664.288452 472.800537 1662.817749 472.613342 1661.32019 472.238953 C 1661.213257 472.399414 1660.932495 472.854004 1660.477905 473.602753 C 1660.023315 474.351501 1659.796021 475.073517 1659.796021 475.768768 C 1659.796021 476.357086 1660.103516 476.825043 1660.718506 477.172668 C 1661.333618 477.520325 1662.30957 477.74762 1663.646729 477.854584 C 1664.448853 477.961548 1665.665649 478.081879 1667.296875 478.215576 C 1668.927979 478.349274 1670.118042 478.442871 1670.866699 478.496368 C 1678.033325 479.138153 1681.616577 482.9086 1681.616577 489.8078 C 1681.616577 493.925934 1680.506836 496.880798 1678.287354 498.672455 C 1676.067871 500.464111 1672.60498 501.359924 1667.898438 501.359924 Z M 1665.732422 466.783813 C 1668.032227 466.783813 1669.529663 465.981567 1670.224976 464.377106 C 1670.920288 462.772644 1671.267822 460.152039 1671.267822 456.515259 C 1671.267822 452.824982 1670.920288 450.137512 1670.224976 448.45282 C 1669.529663 446.768127 1668.05896 445.925812 1665.812744 445.925812 C 1663.566406 445.925812 1662.055542 446.768127 1661.280151 448.45282 C 1660.504639 450.137512 1660.116821 452.824982 1660.116821 456.515259 C 1660.116821 459.831146 1660.504639 462.371521 1661.280151 464.136444 C 1662.055542 465.901367 1663.539673 466.783813 1665.732422 466.783813 Z M 1667.738037 494.621185 C 1670.251709 494.621185 1672.096802 494.260193 1673.273438 493.538177 C 1674.450073 492.816162 1675.03833 491.652954 1675.03833 490.048462 C 1675.03833 488.550964 1674.58374 487.441223 1673.674561 486.719238 C 1672.765381 485.997192 1671.107422 485.529236 1668.700684 485.315308 L 1661.400391 484.673523 C 1660.598145 485.315308 1659.822754 486.171021 1659.073975 487.240662 C 1658.325195 488.310303 1657.950806 489.460175 1657.950806 490.690247 C 1657.950806 491.652954 1658.191528 492.415039 1658.672852 492.976624 C 1659.154175 493.538177 1660.103516 493.952667 1661.520752 494.220062 C 1662.937988 494.487488 1665.010498 494.621185 1667.738037 494.621185 Z M 1618.240479 440.631104 L 1626.824341 440.631104 L 1626.824341 445.203796 C 1630.514526 441.727448 1634.285034 439.989319 1638.135742 439.989319 C 1640.649414 439.989319 1642.44104 440.898499 1643.510742 442.716888 C 1644.580322 444.535278 1645.115112 446.781494 1645.115112 449.455627 L 1645.115112 487 L 1636.53125 487 L 1636.53125 451.942535 C 1636.53125 450.177612 1636.263916 448.86731 1635.729004 448.011597 C 1635.194214 447.155884 1634.231567 446.728027 1632.841064 446.728027 C 1631.129639 446.728027 1629.124023 447.690704 1626.824341 449.616058 L 1626.824341 487 L 1618.240479 487 Z M 1600.430908 424.746918 L 1609.014771 424.746918 L 1609.014771 433.731903 L 1600.430908 433.731903 Z M 1600.430908 440.631104 L 1609.014771 440.631104 L 1609.014771 487 L 1600.430908 487 Z M 1564.651489 440.631104 L 1573.235352 440.631104 L 1573.235352 445.203796 C 1576.925537 441.727448 1580.696045 439.989319 1584.546753 439.989319 C 1587.060425 439.989319 1588.852051 440.898499 1589.921753 442.716888 C 1590.991333 444.535278 1591.526123 446.781494 1591.526123 449.455627 L 1591.526123 487 L 1582.942261 487 L 1582.942261 451.942535 C 1582.942261 450.177612 1582.674927 448.86731 1582.140015 448.011597 C 1581.605225 447.155884 1580.642578 446.728027 1579.252075 446.728027 C 1577.540649 446.728027 1575.535034 447.690704 1573.235352 449.616058 L 1573.235352 487 L 1564.651489 487 Z M 1528.871948 440.631104 L 1537.455811 440.631104 L 1537.455811 444.32135 C 1539.969482 441.433289 1542.911011 439.989319 1546.280396 439.989319 C 1550.505493 439.989319 1553.32666 441.794312 1554.743896 445.404358 C 1556.161133 449.014404 1556.869873 453.012146 1556.869873 457.397705 L 1556.869873 468.628937 C 1556.869873 474.298035 1556.000732 478.884094 1554.262573 482.387177 C 1552.524414 485.890259 1549.542847 487.641785 1545.317749 487.641785 C 1542.590088 487.641785 1539.969482 486.278015 1537.455811 483.550415 L 1537.455811 502.242371 L 1528.871948 502.242371 Z M 1543.633057 480.903046 C 1545.611816 480.903046 1546.88208 479.900269 1547.443604 477.894684 C 1548.005127 475.889099 1548.286011 472.800537 1548.286011 468.628937 L 1548.286011 457.397705 C 1548.286011 453.974854 1547.965088 451.340881 1547.323242 449.495728 C 1546.681519 447.650604 1545.344482 446.728027 1543.312134 446.728027 C 1541.333252 446.728027 1539.381226 447.530273 1537.455811 449.134735 L 1537.455811 478.817261 C 1539.327759 480.207794 1541.386719 480.903046 1543.633057 480.903046 Z M 1507.532715 487.641785 C 1502.612305 487.641785 1499.122559 486.184418 1497.063599 483.269623 C 1495.004517 480.354858 1493.974976 476.116455 1493.974976 470.55426 L 1493.974976 457.076813 C 1493.974976 451.514648 1495.004517 447.276245 1497.063599 444.36145 C 1499.122559 441.446655 1502.612305 439.989319 1507.532715 439.989319 C 1512.399536 439.989319 1515.862427 441.446655 1517.921509 444.36145 C 1519.980591 447.276245 1521.010132 451.514648 1521.010132 457.076813 L 1521.010132 470.55426 C 1521.010132 476.116455 1519.980591 480.354858 1517.921509 483.269623 C 1515.862427 486.184418 1512.399536 487.641785 1507.532715 487.641785 Z M 1507.532715 481.304169 C 1509.083618 481.304169 1510.206787 480.849579 1510.901978 479.940369 C 1511.59729 479.031189 1512.025146 477.908081 1512.185547 476.571014 C 1512.346069 475.233948 1512.42627 473.415588 1512.42627 471.115845 L 1512.42627 456.595459 C 1512.42627 454.295715 1512.346069 452.463989 1512.185547 451.100189 C 1512.025146 449.736389 1511.59729 448.599915 1510.901978 447.690704 C 1510.206787 446.781525 1509.083618 446.326904 1507.532715 446.326904 C 1505.981689 446.326904 1504.845215 446.781525 1504.123169 447.690704 C 1503.401123 448.599915 1502.959961 449.736389 1502.799438 451.100189 C 1502.639038 452.463989 1502.558838 454.295715 1502.558838 456.595459 L 1502.558838 471.115845 C 1502.558838 473.415588 1502.639038 475.233948 1502.799438 476.571014 C 1502.959961 477.908081 1503.401123 479.031189 1504.123169 479.940369 C 1504.845215 480.849579 1505.981689 481.304169 1507.532715 481.304169 Z M 1496.301392 422.019348 L 1504.965576 422.019348 L 1504.965576 430.924103 L 1496.301392 430.924103 Z M 1510.099731 422.019348 L 1518.763916 422.019348 L 1518.763916 430.924103 L 1510.099731 430.924103 Z M 1463.730835 422.019348 L 1472.796143 422.019348 L 1472.796143 480.501953 L 1489.402222 480.501953 L 1489.402222 487 L 1463.730835 487 Z M 1429.074585 452.343658 L 1437.738647 452.343658 L 1437.738647 461.168182 L 1429.074585 461.168182 Z M 1391.690552 501.359924 C 1386.181885 501.359924 1381.943481 500.905334 1378.97522 499.996124 C 1376.006958 499.086945 1374.522827 497.134857 1374.522827 494.139862 C 1374.522827 491.733154 1375.151245 489.647369 1376.408081 487.882446 C 1377.664917 486.117554 1379.255981 484.72702 1381.181396 483.710846 C 1379.737305 483.28299 1378.627563 482.614471 1377.852173 481.705261 C 1377.07666 480.796082 1376.688843 479.806671 1376.688843 478.73703 C 1376.688843 477.132568 1377.089966 475.742035 1377.892212 474.56543 C 1378.694458 473.388824 1380.004761 471.971558 1381.82312 470.313599 C 1380.004761 468.923065 1378.654419 467.17157 1377.771851 465.05899 C 1376.889404 462.946442 1376.448242 460.098572 1376.448242 456.515259 C 1376.448242 451.113525 1377.557983 447.00885 1379.777466 444.201019 C 1381.996948 441.393188 1385.245972 439.989319 1389.524536 439.989319 C 1391.984741 439.989319 1393.990356 440.417145 1395.54126 441.272888 C 1397.092285 442.128601 1398.268921 443.41214 1399.071167 445.123596 C 1399.445435 444.535278 1400.234375 443.746429 1401.437744 442.756989 C 1402.640991 441.767578 1403.937988 440.951965 1405.328491 440.310181 L 1406.612061 439.748627 L 1408.778076 445.284027 C 1407.708496 445.497955 1406.224365 445.952545 1404.325684 446.647827 C 1402.427124 447.343079 1401.290649 447.877899 1400.91626 448.252258 C 1401.290649 449.214966 1401.624878 450.552002 1401.919067 452.263428 C 1402.213135 453.974854 1402.360229 455.472351 1402.360229 456.75592 C 1402.360229 461.836731 1401.37085 465.781006 1399.391968 468.588806 C 1397.413208 471.396637 1394.124023 472.800537 1389.524536 472.800537 C 1388.080566 472.800537 1386.609863 472.613342 1385.112305 472.238953 C 1385.005371 472.399414 1384.724609 472.854004 1384.27002 473.602753 C 1383.815308 474.351501 1383.588013 475.073517 1383.588013 475.768768 C 1383.588013 476.357086 1383.89563 476.825043 1384.51062 477.172668 C 1385.125732 477.520325 1386.101685 477.74762 1387.438721 477.854584 C 1388.240967 477.961548 1389.457764 478.081879 1391.088867 478.215576 C 1392.720093 478.349274 1393.910156 478.442871 1394.658813 478.496368 C 1401.825439 479.138153 1405.408691 482.9086 1405.408691 489.8078 C 1405.408691 493.925934 1404.29895 496.880798 1402.079468 498.672455 C 1399.859985 500.464111 1396.397095 501.359924 1391.690552 501.359924 Z M 1389.524536 466.783813 C 1391.824341 466.783813 1393.321777 465.981567 1394.01709 464.377106 C 1394.71228 462.772644 1395.059937 460.152039 1395.059937 456.515259 C 1395.059937 452.824982 1394.71228 450.137512 1394.01709 448.45282 C 1393.321777 446.768127 1391.851074 445.925812 1389.604858 445.925812 C 1387.358521 445.925812 1385.847656 446.768127 1385.072144 448.45282 C 1384.296753 450.137512 1383.908936 452.824982 1383.908936 456.515259 C 1383.908936 459.831146 1384.296753 462.371521 1385.072144 464.136444 C 1385.847656 465.901367 1387.331787 466.783813 1389.524536 466.783813 Z M 1391.530151 494.621185 C 1394.043823 494.621185 1395.888916 494.260193 1397.065552 493.538177 C 1398.242188 492.816162 1398.830444 491.652954 1398.830444 490.048462 C 1398.830444 488.550964 1398.375854 487.441223 1397.466675 486.719238 C 1396.557495 485.997192 1394.899536 485.529236 1392.492798 485.315308 L 1385.192505 484.673523 C 1384.390259 485.315308 1383.614868 486.171021 1382.866089 487.240662 C 1382.11731 488.310303 1381.74292 489.460175 1381.74292 490.690247 C 1381.74292 491.652954 1381.983643 492.415039 1382.464966 492.976624 C 1382.946289 493.538177 1383.89563 493.952667 1385.312866 494.220062 C 1386.730103 494.487488 1388.802612 494.621185 1391.530151 494.621185 Z M 1342.032593 440.631104 L 1350.616455 440.631104 L 1350.616455 445.203796 C 1354.306641 441.727448 1358.077148 439.989319 1361.927856 439.989319 C 1364.441528 439.989319 1366.233154 440.898499 1367.302856 442.716888 C 1368.372437 444.535278 1368.907227 446.781494 1368.907227 449.455627 L 1368.907227 487 L 1360.323364 487 L 1360.323364 451.942535 C 1360.323364 450.177612 1360.05603 448.86731 1359.521118 448.011597 C 1358.986328 447.155884 1358.023682 446.728027 1356.633179 446.728027 C 1354.921753 446.728027 1352.916138 447.690704 1350.616455 449.616058 L 1350.616455 487 L 1342.032593 487 Z M 1324.223022 424.746918 L 1332.806885 424.746918 L 1332.806885 433.731903 L 1324.223022 433.731903 Z M 1324.223022 440.631104 L 1332.806885 440.631104 L 1332.806885 487 L 1324.223022 487 Z M 1288.443604 440.631104 L 1297.027466 440.631104 L 1297.027466 445.203796 C 1300.717651 441.727448 1304.488159 439.989319 1308.338867 439.989319 C 1310.852539 439.989319 1312.644165 440.898499 1313.713867 442.716888 C 1314.783447 444.535278 1315.318237 446.781494 1315.318237 449.455627 L 1315.318237 487 L 1306.734375 487 L 1306.734375 451.942535 C 1306.734375 450.177612 1306.467041 448.86731 1305.932129 448.011597 C 1305.397339 447.155884 1304.434692 446.728027 1303.044189 446.728027 C 1301.332764 446.728027 1299.327148 447.690704 1297.027466 449.616058 L 1297.027466 487 L 1288.443604 487 Z M 1233.891846 440.631104 L 1241.833984 440.631104 L 1241.833984 445.043365 C 1243.38501 443.331909 1245.083008 442.035004 1246.928101 441.152527 C 1248.773315 440.270081 1250.712036 439.828857 1252.744263 439.828857 C 1256.702026 439.828857 1259.215576 441.780945 1260.285278 445.68515 C 1263.494263 441.780945 1267.344849 439.828857 1271.837402 439.828857 C 1274.244141 439.828857 1276.209595 440.711304 1277.733765 442.476227 C 1279.258057 444.24115 1280.020142 446.941956 1280.020142 450.578735 L 1280.020142 487 L 1272.158325 487 L 1272.158325 451.14032 C 1272.158325 449.107971 1271.837402 447.650604 1271.195557 446.768158 C 1270.553833 445.885681 1269.61792 445.444458 1268.387817 445.444458 C 1267.157715 445.444458 1265.887573 445.778748 1264.577148 446.447266 C 1263.266846 447.115784 1262.050171 448.03833 1260.927002 449.214966 L 1260.927002 450.578735 L 1260.927002 487 L 1253.065186 487 L 1253.065186 451.14032 C 1253.065186 449.107971 1252.744263 447.650604 1252.102539 446.768158 C 1251.460693 445.885681 1250.52478 445.444458 1249.294678 445.444458 C 1248.064575 445.444458 1246.807861 445.778748 1245.524292 446.447266 C 1244.240601 447.115784 1243.01062 448.03833 1241.833984 449.214966 L 1241.833984 487 L 1233.891846 487 Z M 1216.082397 424.746918 L 1224.66626 424.746918 L 1224.66626 433.731903 L 1216.082397 433.731903 Z M 1216.082397 440.631104 L 1224.66626 440.631104 L 1224.66626 487 L 1216.082397 487 Z M 1193.619873 487.722015 C 1188.164795 487.722015 1184.006592 486.037354 1181.145264 482.667969 C 1178.283936 479.298584 1176.692871 474.672424 1176.371948 468.789368 L 1184.394287 466.623352 C 1184.661743 470.794983 1185.477295 474.164307 1186.841064 476.731445 C 1188.204834 479.298584 1190.464478 480.582153 1193.619873 480.582153 C 1195.973145 480.582153 1197.751465 479.927002 1198.954712 478.616699 C 1200.158081 477.306366 1200.759766 475.421143 1200.759766 472.960968 C 1200.759766 470.340332 1200.198242 468.16095 1199.075073 466.422791 C 1197.952026 464.684631 1196.1604 462.692444 1193.700195 460.446167 L 1182.789795 450.819397 C 1180.597046 448.840576 1179.005981 446.741425 1178.016602 444.521912 C 1177.0271 442.302399 1176.532471 439.614929 1176.532471 436.459473 C 1176.532471 431.646088 1177.922974 427.942505 1180.703979 425.348602 C 1183.485107 422.7547 1187.309082 421.457764 1192.175903 421.457764 C 1197.256714 421.457764 1201.053955 422.821564 1203.567627 425.549164 C 1206.081299 428.276764 1207.605469 432.501801 1208.140259 438.224396 L 1200.438843 440.310181 C 1200.171509 436.619934 1199.476196 433.718536 1198.353149 431.605988 C 1197.22998 429.493439 1195.251099 428.437195 1192.416626 428.437195 C 1187.22876 428.437195 1184.63501 430.817108 1184.63501 435.577026 C 1184.63501 437.50238 1184.955811 439.093475 1185.597656 440.350311 C 1186.23938 441.607147 1187.335815 442.95755 1188.886719 444.401581 L 1199.877319 454.02832 C 1202.711914 456.648956 1204.971436 459.416626 1206.656128 462.331421 C 1208.34082 465.246216 1209.183228 468.548676 1209.183228 472.238953 C 1209.183228 476.998901 1207.739258 480.769348 1204.851196 483.550415 C 1201.963135 486.331482 1198.21936 487.722015 1193.619873 487.722015 Z M 1143.640991 452.343658 L 1152.305054 452.343658 L 1152.305054 461.168182 L 1143.640991 461.168182 Z M 1106.25708 501.359924 C 1100.748413 501.359924 1096.51001 500.905334 1093.541748 499.996124 C 1090.573486 499.086945 1089.089355 497.134857 1089.089355 494.139862 C 1089.089355 491.733154 1089.717773 489.647369 1090.974609 487.882446 C 1092.231445 486.117554 1093.82251 484.72702 1095.747803 483.710846 C 1094.303833 483.28299 1093.194092 482.614471 1092.418579 481.705261 C 1091.643066 480.796082 1091.255371 479.806671 1091.255371 478.73703 C 1091.255371 477.132568 1091.656494 475.742035 1092.45874 474.56543 C 1093.260986 473.388824 1094.571167 471.971558 1096.389648 470.313599 C 1094.571167 468.923065 1093.220825 467.17157 1092.338379 465.05899 C 1091.455933 462.946442 1091.014648 460.098572 1091.014648 456.515259 C 1091.014648 451.113525 1092.12439 447.00885 1094.343872 444.201019 C 1096.563477 441.393188 1099.8125 439.989319 1104.091064 439.989319 C 1106.55127 439.989319 1108.556763 440.417145 1110.107788 441.272888 C 1111.658691 442.128601 1112.835327 443.41214 1113.637573 445.123596 C 1114.011963 444.535278 1114.800781 443.746429 1116.00415 442.756989 C 1117.20752 441.767578 1118.504395 440.951965 1119.89502 440.310181 L 1121.178589 439.748627 L 1123.344604 445.284027 C 1122.274902 445.497955 1120.790771 445.952545 1118.892212 446.647827 C 1116.99353 447.343079 1115.857056 447.877899 1115.482666 448.252258 C 1115.857056 449.214966 1116.191284 450.552002 1116.485474 452.263428 C 1116.779663 453.974854 1116.926758 455.472351 1116.926758 456.75592 C 1116.926758 461.836731 1115.937256 465.781006 1113.958496 468.588806 C 1111.979614 471.396637 1108.690552 472.800537 1104.091064 472.800537 C 1102.646973 472.800537 1101.17627 472.613342 1099.678711 472.238953 C 1099.571777 472.399414 1099.291016 472.854004 1098.836426 473.602753 C 1098.381836 474.351501 1098.154541 475.073517 1098.154541 475.768768 C 1098.154541 476.357086 1098.462036 476.825043 1099.077148 477.172668 C 1099.692139 477.520325 1100.668213 477.74762 1102.005249 477.854584 C 1102.807495 477.961548 1104.02417 478.081879 1105.655396 478.215576 C 1107.286621 478.349274 1108.476563 478.442871 1109.225342 478.496368 C 1116.391968 479.138153 1119.97522 482.9086 1119.97522 489.8078 C 1119.97522 493.925934 1118.865479 496.880798 1116.645996 498.672455 C 1114.426392 500.464111 1110.963501 501.359924 1106.25708 501.359924 Z M 1104.091064 466.783813 C 1106.390747 466.783813 1107.888306 465.981567 1108.583496 464.377106 C 1109.278809 462.772644 1109.626465 460.152039 1109.626465 456.515259 C 1109.626465 452.824982 1109.278809 450.137512 1108.583496 448.45282 C 1107.888306 446.768127 1106.41748 445.925812 1104.171265 445.925812 C 1101.925049 445.925812 1100.414185 446.768127 1099.638672 448.45282 C 1098.863159 450.137512 1098.475464 452.824982 1098.475464 456.515259 C 1098.475464 459.831146 1098.863159 462.371521 1099.638672 464.136444 C 1100.414185 465.901367 1101.898315 466.783813 1104.091064 466.783813 Z M 1106.096558 494.621185 C 1108.610229 494.621185 1110.455444 494.260193 1111.631958 493.538177 C 1112.808594 492.816162 1113.396851 491.652954 1113.396851 490.048462 C 1113.396851 488.550964 1112.942261 487.441223 1112.033081 486.719238 C 1111.123901 485.997192 1109.465942 485.529236 1107.059326 485.315308 L 1099.759033 484.673523 C 1098.956787 485.315308 1098.181274 486.171021 1097.432495 487.240662 C 1096.683716 488.310303 1096.309448 489.460175 1096.309448 490.690247 C 1096.309448 491.652954 1096.550049 492.415039 1097.031372 492.976624 C 1097.512695 493.538177 1098.462036 493.952667 1099.879272 494.220062 C 1101.296631 494.487488 1103.369019 494.621185 1106.096558 494.621185 Z M 1056.598999 440.631104 L 1065.182861 440.631104 L 1065.182861 445.203796 C 1068.873169 441.727448 1072.643555 439.989319 1076.494263 439.989319 C 1079.007935 439.989319 1080.799561 440.898499 1081.869263 442.716888 C 1082.938843 444.535278 1083.473755 446.781494 1083.473755 449.455627 L 1083.473755 487 L 1074.889893 487 L 1074.889893 451.942535 C 1074.889893 450.177612 1074.622437 448.86731 1074.087646 448.011597 C 1073.552734 447.155884 1072.590088 446.728027 1071.199585 446.728027 C 1069.488159 446.728027 1067.482544 447.690704 1065.182861 449.616058 L 1065.182861 487 L 1056.598999 487 Z M 1038.789429 424.746918 L 1047.373291 424.746918 L 1047.373291 433.731903 L 1038.789429 433.731903 Z M 1038.789429 440.631104 L 1047.373291 440.631104 L 1047.373291 487 L 1038.789429 487 Z M 1020.659058 422.019348 L 1029.24292 422.019348 L 1029.24292 487 L 1020.659058 487 Z M 985.601624 421.939117 L 994.185486 421.939117 L 994.185486 460.686829 L 1006.700256 440.631104 L 1015.685242 440.631104 L 1004.774902 458.761475 L 1015.36438 487 L 1006.780518 487 L 998.116394 463.253967 L 994.185486 469.190491 L 994.185486 486.919769 L 985.601624 486.919769 Z M 953.271729 492.054047 C 956.480652 492.054047 958.686768 491.813385 959.890137 491.332031 C 961.093506 490.850708 961.695129 489.941528 961.695129 488.604462 C 961.695129 488.283569 961.588196 487.588318 961.374268 486.518677 L 960.33136 481.705261 L 959.930237 480.10083 C 957.256104 468.976501 954.154175 455.820068 950.62439 440.631104 L 959.288452 440.631104 L 965.545837 475.287445 L 971.562561 440.631104 L 980.226685 440.631104 L 969.155884 489.567139 C 968.407166 492.829559 966.829407 495.156006 964.422729 496.546539 C 962.016052 497.937073 958.646667 498.632324 954.314636 498.632324 L 953.271729 498.632324 Z M 929.686157 487.722015 C 923.268311 487.722015 918.749084 485.810059 916.128479 481.986053 C 913.507813 478.162079 912.197571 472.880798 912.197571 466.142029 L 912.197571 443.198242 C 912.197571 436.085083 913.481079 430.683441 916.048218 426.993164 C 918.615417 423.302887 923.161316 421.457764 929.686157 421.457764 C 935.515747 421.457764 939.700684 423.035492 942.241089 426.190948 C 944.781494 429.346405 946.051636 433.999298 946.051636 440.14975 L 946.051636 445.284027 L 937.467773 445.284027 L 937.467773 440.711304 C 937.467773 437.716309 937.334106 435.416595 937.06665 433.812134 C 936.799255 432.207672 936.117371 430.924103 935.020996 429.961426 C 933.924622 428.998749 932.173096 428.517395 929.766357 428.517395 C 927.306213 428.517395 925.474487 429.038849 924.271118 430.081757 C 923.067749 431.124664 922.278931 432.568665 921.904541 434.413818 C 921.530151 436.258942 921.342957 438.732452 921.342957 441.834442 L 921.342957 467.586029 C 921.342957 470.901917 921.610352 473.495789 922.145203 475.367676 C 922.679993 477.239532 923.549072 478.576569 924.752441 479.378815 C 925.955811 480.18103 927.627075 480.582153 929.766357 480.582153 C 932.066101 480.582153 933.777527 480.074097 934.900635 479.057922 C 936.023804 478.041748 936.732422 476.651245 937.02655 474.886322 C 937.32074 473.121399 937.467773 470.714722 937.467773 467.66626 L 937.467773 462.852875 L 946.051636 462.852875 L 946.051636 467.66626 C 946.051636 474.137604 944.834961 479.098022 942.401489 482.547607 C 939.968079 485.997223 935.729675 487.722015 929.686157 487.722015 Z M 878.744507 452.343658 L 887.40863 452.343658 L 887.40863 461.168182 L 878.744507 461.168182 Z M 841.360596 501.359924 C 835.851929 501.359924 831.613525 500.905334 828.645264 499.996124 C 825.677002 499.086945 824.192871 497.134857 824.192871 494.139862 C 824.192871 491.733154 824.821289 489.647369 826.078125 487.882446 C 827.334961 486.117554 828.926025 484.72702 830.851379 483.710846 C 829.407349 483.28299 828.297607 482.614471 827.522156 481.705261 C 826.746643 480.796082 826.358887 479.806671 826.358887 478.73703 C 826.358887 477.132568 826.76001 475.742035 827.562256 474.56543 C 828.364502 473.388824 829.674744 471.971558 831.493164 470.313599 C 829.674744 468.923065 828.324341 467.17157 827.441895 465.05899 C 826.559448 462.946442 826.118225 460.098572 826.118225 456.515259 C 826.118225 451.113525 827.227966 447.00885 829.44751 444.201019 C 831.666992 441.393188 834.916016 439.989319 839.19458 439.989319 C 841.654785 439.989319 843.660339 440.417145 845.211304 441.272888 C 846.762268 442.128601 847.938904 443.41214 848.74115 445.123596 C 849.115479 444.535278 849.904358 443.746429 851.107727 442.756989 C 852.311035 441.767578 853.607971 440.951965 854.998535 440.310181 L 856.282104 439.748627 L 858.44812 445.284027 C 857.378479 445.497955 855.894348 445.952545 853.995728 446.647827 C 852.097107 447.343079 850.960632 447.877899 850.586243 448.252258 C 850.960632 449.214966 851.294861 450.552002 851.58905 452.263428 C 851.883179 453.974854 852.030273 455.472351 852.030273 456.75592 C 852.030273 461.836731 851.040833 465.781006 849.062012 468.588806 C 847.083191 471.396637 843.794067 472.800537 839.19458 472.800537 C 837.750549 472.800537 836.279846 472.613342 834.782288 472.238953 C 834.675354 472.399414 834.394592 472.854004 833.940002 473.602753 C 833.485352 474.351501 833.258057 475.073517 833.258057 475.768768 C 833.258057 476.357086 833.565613 476.825043 834.180664 477.172668 C 834.795715 477.520325 835.771729 477.74762 837.108765 477.854584 C 837.911011 477.961548 839.127747 478.081879 840.758911 478.215576 C 842.390137 478.349274 843.580078 478.442871 844.328857 478.496368 C 851.495483 479.138153 855.078735 482.9086 855.078735 489.8078 C 855.078735 493.925934 853.968994 496.880798 851.749512 498.672455 C 849.529968 500.464111 846.067017 501.359924 841.360596 501.359924 Z M 839.19458 466.783813 C 841.494324 466.783813 842.991821 465.981567 843.687073 464.377106 C 844.382324 462.772644 844.72998 460.152039 844.72998 456.515259 C 844.72998 452.824982 844.382324 450.137512 843.687073 448.45282 C 842.991821 446.768127 841.521057 445.925812 839.27478 445.925812 C 837.028564 445.925812 835.5177 446.768127 834.742188 448.45282 C 833.966736 450.137512 833.578979 452.824982 833.578979 456.515259 C 833.578979 459.831146 833.966736 462.371521 834.742188 464.136444 C 835.5177 465.901367 837.001831 466.783813 839.19458 466.783813 Z M 841.200134 494.621185 C 843.713806 494.621185 845.55896 494.260193 846.735535 493.538177 C 847.91217 492.816162 848.500427 491.652954 848.500427 490.048462 C 848.500427 488.550964 848.045837 487.441223 847.136658 486.719238 C 846.227478 485.997192 844.569519 485.529236 842.162842 485.315308 L 834.862549 484.673523 C 834.060303 485.315308 833.284851 486.171021 832.536072 487.240662 C 831.787292 488.310303 831.412964 489.460175 831.412964 490.690247 C 831.412964 491.652954 831.653625 492.415039 832.134949 492.976624 C 832.616272 493.538177 833.565613 493.952667 834.982849 494.220062 C 836.400146 494.487488 838.472534 494.621185 841.200134 494.621185 Z M 791.702576 440.631104 L 800.286438 440.631104 L 800.286438 445.203796 C 803.976685 441.727448 807.747131 439.989319 811.597839 439.989319 C 814.111511 439.989319 815.903137 440.898499 816.972778 442.716888 C 818.042419 444.535278 818.577271 446.781494 818.577271 449.455627 L 818.577271 487 L 809.993408 487 L 809.993408 451.942535 C 809.993408 450.177612 809.726013 448.86731 809.191162 448.011597 C 808.656372 447.155884 807.693665 446.728027 806.303162 446.728027 C 804.591736 446.728027 802.586121 447.690704 800.286438 449.616058 L 800.286438 487 L 791.702576 487 Z M 773.893005 424.746918 L 782.476929 424.746918 L 782.476929 433.731903 L 773.893005 433.731903 Z M 773.893005 440.631104 L 782.476929 440.631104 L 782.476929 487 L 773.893005 487 Z M 738.113586 440.631104 L 746.697449 440.631104 L 746.697449 445.203796 C 750.387695 441.727448 754.158142 439.989319 758.00885 439.989319 C 760.522522 439.989319 762.314148 440.898499 763.383789 442.716888 C 764.453491 444.535278 764.988281 446.781494 764.988281 449.455627 L 764.988281 487 L 756.404419 487 L 756.404419 451.942535 C 756.404419 450.177612 756.137024 448.86731 755.602173 448.011597 C 755.067383 447.155884 754.104675 446.728027 752.714172 446.728027 C 751.002747 446.728027 748.997192 447.690704 746.697449 449.616058 L 746.697449 487 L 738.113586 487 Z M 703.858337 421.939117 L 712.4422 421.939117 L 712.4422 460.686829 L 724.95697 440.631104 L 733.941956 440.631104 L 723.031616 458.761475 L 733.621094 487 L 725.037231 487 L 716.373108 463.253967 L 712.4422 469.190491 L 712.4422 486.919769 L 703.858337 486.919769 Z M 677.866089 487.641785 C 676.101135 487.641785 674.510071 487.133698 673.092773 486.117554 C 671.675537 485.101379 670.565796 483.764343 669.76355 482.106384 C 668.961304 480.448425 668.560181 478.710297 668.560181 476.891907 C 668.560181 473.255096 669.335693 470.300232 670.886658 468.027252 C 672.437622 465.754272 674.403076 463.962616 676.783081 462.652313 C 679.163025 461.34198 682.518982 459.804382 686.851074 458.03949 L 686.851074 454.750336 C 686.851074 451.701843 686.543518 449.549225 685.928467 448.292389 C 685.313416 447.035553 684.070007 446.407135 682.19812 446.407135 C 678.935669 446.407135 677.304504 448.599884 677.304504 452.985443 L 677.304504 455.31189 L 668.800842 454.991028 L 668.881104 453.306335 C 669.148499 448.653381 670.445435 445.27066 672.771912 443.158112 C 675.098389 441.045563 678.427612 439.989319 682.759644 439.989319 C 687.19873 439.989319 690.420959 441.205994 692.426575 443.639465 C 694.432129 446.072906 695.434937 449.749756 695.434937 454.670105 L 695.434937 475.848999 C 695.434937 479.325348 695.702332 483.042297 696.237122 487 L 688.375305 487 C 687.786987 483.951508 687.412598 481.678528 687.252136 480.18103 C 686.610352 482.266846 685.50061 484.031738 683.922913 485.475769 C 682.345154 486.9198 680.326233 487.641785 677.866089 487.641785 Z M 681.235413 480.261261 C 682.358582 480.261261 683.454956 479.820038 684.524597 478.937592 C 685.594238 478.055115 686.36969 477.212799 686.851074 476.410553 L 686.851074 463.253967 C 684.497803 464.644531 682.73291 465.727539 681.556335 466.503021 C 680.3797 467.278503 679.35022 468.321411 678.467712 469.631714 C 677.585266 470.942017 677.144043 472.479614 677.144043 474.244537 C 677.144043 476.169891 677.491699 477.654022 678.186951 478.696899 C 678.882202 479.739807 679.898376 480.261261 681.235413 480.261261 Z M 682.759644 439.187073 C 680.085571 439.187073 677.919556 438.37149 676.261597 436.740265 C 674.603638 435.10907 673.774719 432.929688 673.774719 430.202087 C 673.774719 427.474487 674.590271 425.308502 676.221497 423.704041 C 677.852722 422.099548 680.032104 421.297333 682.759644 421.297333 C 685.487244 421.297333 687.666626 422.099548 689.297852 423.704041 C 690.929077 425.308502 691.744629 427.474487 691.744629 430.202087 C 691.744629 432.929688 690.91571 435.10907 689.257751 436.740265 C 687.599792 438.37149 685.433777 439.187073 682.759644 439.187073 Z M 682.759644 434.855042 C 684.150208 434.855042 685.273315 434.440552 686.129028 433.611572 C 686.984741 432.782593 687.412598 431.646118 687.412598 430.202087 C 687.412598 428.758057 686.998108 427.621582 686.169128 426.792603 C 685.340149 425.963623 684.203674 425.549164 682.759644 425.549164 C 681.315674 425.549164 680.179138 425.950256 679.35022 426.752502 C 678.52124 427.554749 678.10675 428.70459 678.10675 430.202087 C 678.10675 431.646118 678.52124 432.782593 679.35022 433.611572 C 680.179138 434.440552 681.315674 434.855042 682.759644 434.855042 Z M 644.653748 487.641785 C 640.696045 487.641785 637.794678 486.171051 635.949524 483.229523 C 634.10437 480.287994 633.181824 475.47467 633.181824 468.789368 L 633.181824 459.804382 C 633.181824 453.653931 633.997437 448.813843 635.628662 445.284027 C 637.259827 441.754211 640.241455 439.989319 644.573486 439.989319 C 647.301086 439.989319 649.868225 441.192627 652.274902 443.599335 L 652.274902 422.019348 L 660.858765 422.019348 L 660.858765 487 L 652.274902 487 L 652.274902 484.031738 C 650.028687 486.438446 647.488281 487.641785 644.653748 487.641785 Z M 646.980225 480.903046 C 648.69165 480.903046 650.456543 480.314758 652.274902 479.138153 L 652.274902 448.733612 C 650.296082 447.396545 648.477722 446.728027 646.819763 446.728027 C 643.450378 446.728027 641.765686 449.963684 641.765686 456.435028 L 641.765686 469.511383 C 641.765686 473.255127 642.113342 476.089661 642.808594 478.015015 C 643.503845 479.940369 644.894409 480.903046 646.980225 480.903046 Z M 616.254761 424.746918 L 624.838623 424.746918 L 624.838623 433.731903 L 616.254761 433.731903 Z M 616.254761 440.631104 L 624.838623 440.631104 L 624.838623 487 L 616.254761 487 Z M 581.437988 421.939117 L 590.021851 421.939117 L 590.021851 460.686829 L 602.536621 440.631104 L 611.521606 440.631104 L 600.611267 458.761475 L 611.200745 487 L 602.616882 487 L 593.952759 463.253967 L 590.021851 469.190491 L 590.021851 486.919769 L 581.437988 486.919769 Z M 559.376648 487.722015 C 553.921448 487.722015 549.763245 486.037354 546.901978 482.667969 C 544.040649 479.298584 542.449585 474.672424 542.128723 468.789368 L 550.151001 466.623352 C 550.418396 470.794983 551.234009 474.164307 552.597778 476.731445 C 553.961609 479.298584 556.221191 480.582153 559.376648 480.582153 C 561.729858 480.582153 563.508118 479.927002 564.711487 478.616699 C 565.914856 477.306366 566.516479 475.421143 566.516479 472.960968 C 566.516479 470.340332 565.954956 468.16095 564.831787 466.422791 C 563.708679 464.684631 561.917053 462.692444 559.456848 460.446167 L 548.54657 450.819397 C 546.35376 448.840576 544.762695 446.741425 543.773254 444.521912 C 542.783875 442.302399 542.289124 439.614929 542.289124 436.459473 C 542.289124 431.646088 543.679688 427.942505 546.460754 425.348602 C 549.241821 422.7547 553.065735 421.457764 557.932617 421.457764 C 563.013428 421.457764 566.810608 422.821564 569.32428 425.549164 C 571.837952 428.276764 573.362183 432.501801 573.897034 438.224396 L 566.195618 440.310181 C 565.928223 436.619934 565.23291 433.718536 564.109802 431.605988 C 562.986694 429.493439 561.007874 428.437195 558.173279 428.437195 C 552.985535 428.437195 550.391663 430.817108 550.391663 435.577026 C 550.391663 437.50238 550.712585 439.093475 551.35437 440.350311 C 551.996155 441.607147 553.092529 442.95755 554.643494 444.401581 L 565.634033 454.02832 C 568.468628 456.648956 570.72821 459.416626 572.412903 462.331421 C 574.097595 465.246216 574.939941 468.548676 574.939941 472.238953 C 574.939941 476.998901 573.495911 480.769348 570.607849 483.550415 C 567.719849 486.331482 563.976135 487.722015 559.376648 487.722015 Z"/>
            <g id="Rubrik-copy">
                <path id="lg" fill="#ffffff" fill-rule="evenodd" stroke="none" d="M 931.258911 365.65332 C 924.183411 365.65332 917.992432 363.84021 912.685791 360.21405 C 907.37915 356.58783 903.355042 351.94458 900.613281 346.28418 C 897.871521 340.623779 896.50061 334.69812 896.50061 328.50708 C 896.50061 317.186249 899.10968 307.85556 904.327881 300.514709 C 909.546082 293.173889 915.8255 287.46933 923.166321 283.400909 C 930.507202 279.332489 939.837891 275.17569 951.158691 270.930389 L 959.118591 267.746429 L 959.118591 253.418579 C 959.118591 247.935059 958.366821 243.778259 956.863281 240.948059 C 955.359741 238.117859 952.662231 236.702789 948.770691 236.702789 C 944.87915 236.702789 942.137451 237.940979 940.545471 240.417419 C 938.953491 242.893829 937.980591 246.431549 937.626831 251.030609 L 936.830811 261.643829 L 899.153931 260.051849 L 899.41925 255.010559 C 900.657471 238.383118 905.69873 226.22226 914.543091 218.527649 C 923.387512 210.833038 935.94635 206.985779 952.219971 206.985779 C 967.255432 206.985779 978.576111 211.142578 986.182251 219.456299 C 993.788452 227.77005 997.591492 239.179138 997.591492 253.683929 L 997.591492 325.05777 C 997.591492 334.786591 997.989441 343.144409 998.785461 350.13147 C 999.581482 357.11853 1000.067871 361.40802 1000.244751 363 L 964.425171 363 C 963.717651 357.870239 962.567871 350.529541 960.975891 340.9776 C 958.853271 348.053101 955.271301 353.934509 950.230042 358.62207 C 945.188721 363.30957 938.865051 365.65332 931.258911 365.65332 Z M 945.586731 337.262939 C 948.063171 337.262939 950.539551 336.37854 953.015991 334.60968 C 955.492432 332.840759 957.526611 330.80661 959.118591 328.50708 L 959.118591 286.31955 C 951.51239 290.03418 945.321411 294.986969 940.545471 301.17804 C 935.76947 307.36911 933.381531 313.648529 933.381531 320.016479 C 933.381531 325.32312 934.487061 329.524139 936.698181 332.61969 C 938.909302 335.71521 941.87207 337.262939 945.586731 337.262939 Z M 951.689331 199.556549 C 942.844971 199.556549 935.548462 196.991699 929.799561 191.861969 C 924.05072 186.732208 921.176331 179.568359 921.176331 170.370209 C 921.176331 161.172058 924.05072 154.008209 929.799561 148.878448 C 935.548462 143.748718 942.844971 141.183868 951.689331 141.183868 C 960.533752 141.183868 967.918701 143.792938 973.844421 149.011108 C 979.770142 154.229309 982.732971 161.348938 982.732971 170.370209 C 982.732971 179.568359 979.814392 186.732208 973.977112 191.861969 C 968.139771 196.991699 960.710632 199.556549 951.689331 199.556549 Z M 951.689331 184.432709 C 956.111511 184.432709 959.516541 183.106079 961.904541 180.452759 C 964.292542 177.799438 965.486511 174.438629 965.486511 170.370209 C 965.486511 166.124908 964.292542 162.675629 961.904541 160.022339 C 959.516541 157.369019 956.111511 156.042358 951.689331 156.042358 C 947.444031 156.042358 944.127441 157.369019 941.739441 160.022339 C 939.35144 162.675629 938.157471 166.124908 938.157471 170.370209 C 938.157471 174.438629 939.35144 177.799438 941.739441 180.452759 C 944.127441 183.106079 947.444031 184.432709 951.689331 184.432709 Z M 826.71875 409.4328 C 809.029968 409.4328 794.127441 407.5755 782.01062 403.86087 C 769.893799 400.14624 763.83551 392.540161 763.83551 381.04248 C 763.83551 370.252319 771.176208 359.816101 785.85791 349.73349 C 779.136169 347.25705 774.31604 344.42688 771.3974 341.24292 C 768.47876 338.058929 767.01947 334.34436 767.01947 330.09906 C 767.01947 325.146179 768.611389 320.5914 771.79541 316.43454 C 774.97937 312.277649 779.666809 307.7229 785.85791 302.77002 C 780.37439 298.701599 776.17334 293.57193 773.2547 287.380859 C 770.33606 281.189789 768.87677 273.14151 768.87677 263.235809 C 768.87677 244.485718 773.34314 230.42334 782.27594 221.048279 C 791.208801 211.673248 803.900269 206.985779 820.35083 206.985779 C 828.133911 206.985779 834.94397 208.223969 840.78125 210.700409 C 846.618591 213.176849 851.21759 216.714539 854.57843 221.313629 C 857.23175 218.306519 860.41571 215.211029 864.13031 212.027069 C 867.844971 208.843079 871.64801 206.278259 875.539551 204.332489 L 880.84613 201.679169 L 890.39801 221.844299 C 887.39093 222.728729 883.057251 224.409119 877.396851 226.885559 C 871.73645 229.362 867.402771 231.573059 864.395691 233.518829 C 866.341431 236.525909 868.021851 240.682709 869.436951 245.989349 C 870.852051 251.295959 871.55957 257.044739 871.55957 263.235809 C 871.55957 279.686371 867.579651 292.510529 859.619751 301.70871 C 851.65979 310.90686 839.366272 315.505859 822.738831 315.505859 C 814.42511 315.505859 806.907471 314.17926 800.18573 311.52594 C 796.471069 316.30188 794.79071 320.016479 795.14447 322.6698 C 795.32135 325.67688 799.920349 327.71106 808.94165 328.7724 C 812.656311 329.47995 823.180969 330.80658 840.51593 332.75235 C 854.843872 334.52124 865.014771 338.368469 871.028931 344.29422 C 877.043091 350.219971 880.050171 358.754639 880.050171 369.89859 C 880.050171 382.634521 875.937561 392.40741 867.71228 399.21759 C 859.487 406.027771 845.822632 409.4328 826.71875 409.4328 Z M 820.881531 291.09549 C 826.541931 291.09549 830.21228 288.88443 831.8927 284.462219 C 833.57312 280.040039 834.41333 272.43399 834.41333 261.643829 C 834.41333 250.322998 833.617371 242.45163 832.025391 238.029419 C 830.433411 233.607239 826.807251 231.396179 821.146851 231.396179 C 815.309509 231.396179 811.594971 233.695679 810.002991 238.294769 C 808.41095 242.893829 807.61499 250.676788 807.61499 261.643829 C 807.61499 271.90332 808.49939 279.376709 810.268311 284.06424 C 812.03717 288.75177 815.57489 291.09549 820.881531 291.09549 Z M 826.45343 383.69577 C 833.882751 383.69577 839.36615 382.85556 842.903931 381.17511 C 846.44165 379.49469 848.29895 376.70874 848.47583 372.8172 C 849.006531 368.21814 847.989441 364.8573 845.424561 362.73468 C 842.85968 360.612 838.127991 359.10849 831.22937 358.22406 L 808.14563 355.57074 C 805.84613 358.40094 803.988831 361.09845 802.57373 363.66333 C 801.15863 366.22821 800.45105 368.92569 800.45105 371.75592 C 800.45105 376.001221 802.3526 379.05249 806.155701 380.90979 C 809.95874 382.76712 816.724609 383.69577 826.45343 383.69577 Z M 703.074829 148.082458 L 742.87439 148.082458 L 742.87439 363 L 703.074829 363 Z M 591.901489 148.082458 L 640.456909 148.082458 L 681.84845 363 L 641.51825 363 L 633.558289 315.77121 L 599.596069 315.77121 L 591.370789 363 L 550.244629 363 Z M 629.313049 288.70752 L 616.311829 202.209839 L 603.575989 288.70752 Z M 572.001709 86.525848 L 605.167969 86.525848 L 605.167969 123.672089 L 572.001709 123.672089 Z M 627.190369 86.525848 L 660.622009 86.525848 L 660.622009 123.672089 L 627.190369 123.672089 Z"/>
                <path id="klassikern-" fill="#ffffff" fill-rule="evenodd" stroke="none" d="M 1140.763672 364.591797 C 1129.796631 364.591797 1121.482666 361.983826 1115.822266 356.765625 C 1110.161743 351.547455 1107.332031 344.072571 1107.332031 334.34375 C 1107.332031 330.09845 1107.862549 325.499725 1108.923828 320.546875 L 1111.046875 310.199219 C 1111.754395 307.192139 1112.109375 303.920563 1112.109375 300.382813 C 1112.109375 291.892212 1108.924683 287.646484 1102.556641 287.646484 C 1099.72644 287.646484 1096.76355 288.443176 1093.667969 290.035156 C 1090.57251 291.627167 1086.990356 294.102051 1082.921875 297.462891 L 1069.125 363 L 1030.917969 363 L 1069.390625 182.576172 L 1108.660156 177.269531 L 1088.759766 270.666016 L 1139.96875 230.335938 L 1166.236328 230.335938 L 1113.169922 267.216797 C 1115.823242 266.509247 1118.741821 266.154297 1121.925781 266.154297 C 1131.477661 266.154297 1138.730713 269.072876 1143.683594 274.910156 C 1148.636475 280.747467 1151.111328 288.175995 1151.111328 297.197266 C 1151.111328 300.911896 1150.758301 304.27417 1150.050781 307.28125 L 1147.132813 320.546875 C 1146.248413 323.730835 1145.804688 326.560669 1145.804688 329.037109 C 1145.804688 335.58194 1149.253784 338.855469 1156.152344 338.855469 C 1161.458984 338.855469 1165.704712 336.953491 1168.888672 333.150391 C 1172.072632 329.34729 1175.257446 323.465759 1178.441406 315.505859 L 1206.832031 182.576172 L 1246.099609 177.269531 L 1215.587891 320.546875 C 1214.880371 323.200195 1214.525391 326.030029 1214.525391 329.037109 C 1214.525391 332.57486 1215.366333 335.096069 1217.046875 336.599609 C 1218.727295 338.103149 1221.512817 338.855469 1225.404297 338.855469 C 1230.534058 338.855469 1235.310181 336.687256 1239.732422 332.353516 C 1242.144531 329.989624 1244.187988 327.244202 1245.863281 324.117188 C 1245.845337 323.378662 1245.833984 322.632385 1245.833984 321.873047 C 1245.833984 308.783386 1248.44397 295.031555 1253.662109 280.615234 C 1258.880249 266.198914 1266.663818 253.994171 1277.011719 244 C 1287.359741 234.005859 1299.69751 229.007813 1314.025391 229.007813 C 1321.277832 229.007813 1326.671265 230.246246 1330.208984 232.722656 C 1333.746704 235.199097 1335.515625 238.472595 1335.515625 242.541016 L 1335.515625 244.398438 L 1338.435547 230.335938 L 1376.642578 230.335938 L 1357.539063 320.546875 C 1356.831543 323.200195 1356.476563 326.030029 1356.476563 329.037109 C 1356.476563 336.64325 1360.103027 340.447266 1367.355469 340.447266 C 1372.308228 340.447266 1376.598511 338.147888 1380.224609 333.548828 C 1380.303345 333.449005 1380.380981 333.347229 1380.458984 333.246094 C 1380.390991 332.378906 1380.357422 331.506714 1380.357422 330.628906 C 1380.357422 324.791626 1381.726929 319.706787 1384.46875 315.373047 C 1387.210449 311.039307 1390.528442 307.898865 1394.419922 305.953125 C 1401.318481 293.571014 1407.33313 281.057617 1412.462891 268.410156 C 1417.592651 255.762695 1422.455566 242.097656 1427.054688 227.416016 L 1466.324219 222.109375 C 1467.208618 244.750854 1468.711304 269.249329 1470.833984 295.605469 C 1471.718384 306.218658 1472.162109 313.913483 1472.162109 318.689453 C 1472.162109 322.757874 1471.807129 326.118164 1471.099609 328.771484 C 1475.703369 326.12677 1479.70874 323.591797 1483.119141 321.164063 C 1483.785156 319.104218 1484.687012 317.173523 1485.826172 315.373047 C 1488.567871 311.039307 1491.883789 307.898865 1495.775391 305.953125 C 1502.67395 293.571014 1508.688599 281.057617 1513.818359 268.410156 C 1518.947998 255.762695 1523.812988 242.097656 1528.412109 227.416016 L 1567.679688 222.109375 C 1568.564087 244.750824 1570.068726 269.249359 1572.191406 295.605469 C 1573.075806 306.218628 1573.517578 313.913483 1573.517578 318.689453 C 1573.517578 322.757874 1573.16272 326.118164 1572.455078 328.771484 C 1580.768799 323.995514 1587.138428 319.57428 1591.560547 315.505859 L 1609.601563 230.335938 L 1647.810547 230.335938 L 1628.705078 320.546875 C 1627.997559 323.200195 1627.644531 326.030029 1627.644531 329.037109 C 1627.644531 332.57486 1628.485596 335.096069 1630.166016 336.599609 C 1631.846436 338.103149 1634.631836 338.855469 1638.523438 338.855469 C 1643.653198 338.855469 1648.429443 336.687256 1652.851563 332.353516 C 1657.273804 328.019775 1660.456665 322.40448 1662.402344 315.505859 L 1662.447266 315.505859 L 1690.792969 182.576172 L 1730.0625 177.269531 L 1710.162109 270.666016 L 1761.371094 230.335938 L 1787.638672 230.335938 L 1734.572266 267.216797 C 1737.225586 266.509247 1740.144165 266.154297 1743.328125 266.154297 C 1752.880127 266.154297 1760.133057 269.072876 1765.085938 274.910156 C 1770.038818 280.747467 1772.515625 288.175995 1772.515625 297.197266 C 1772.515625 300.911896 1772.160645 304.27417 1771.453125 307.28125 L 1768.535156 320.546875 C 1767.650635 323.730835 1767.208984 326.560669 1767.208984 329.037109 C 1767.208984 335.58194 1770.658081 338.855469 1777.556641 338.855469 C 1782.863281 338.855469 1787.107056 336.953491 1790.291016 333.150391 C 1792.327393 330.71814 1794.364136 327.431274 1796.400391 323.298828 C 1796.397217 323.001282 1796.394531 322.70517 1796.394531 322.404297 C 1796.394531 310.199158 1798.782593 296.755768 1803.558594 282.074219 C 1808.334473 267.392548 1816.118042 254.701721 1826.908203 244 C 1837.698364 233.298309 1851.405762 227.947266 1868.033203 227.947266 C 1887.490845 227.947266 1897.220703 236.437012 1897.220703 253.417969 C 1897.220703 263.323669 1894.388916 272.434326 1888.728516 280.748047 C 1883.068115 289.061737 1875.550903 295.737976 1866.175781 300.779297 C 1856.800781 305.820587 1846.806641 308.696747 1836.193359 309.404297 C 1835.8396 314.710938 1835.664063 318.246765 1835.664063 320.015625 C 1835.664063 328.682983 1837.166748 334.564636 1840.173828 337.660156 C 1843.180908 340.755676 1848.045898 342.304688 1854.767578 342.304688 C 1864.31958 342.304688 1872.500366 340.094055 1879.310547 335.671875 C 1886.115723 331.25293 1893.58313 324.536621 1901.712891 315.525391 L 1919.773438 230.335938 L 1957.980469 230.335938 L 1954.53125 246.785156 C 1960.54541 241.478516 1965.985229 237.410278 1970.849609 234.580078 C 1975.713989 231.749878 1980.976318 230.335938 1986.636719 230.335938 C 1992.297119 230.335938 1996.762695 232.280334 2000.035156 236.171875 C 2003.307617 240.063385 2004.943359 244.750854 2004.943359 250.234375 C 2004.943359 255.364136 2003.263184 259.874115 1999.902344 263.765625 C 1996.541504 267.657166 1991.854004 269.603516 1985.839844 269.603516 C 1981.948364 269.603516 1979.340332 268.67569 1978.013672 266.818359 C 1976.687012 264.961029 1975.668579 262.26236 1974.960938 258.724609 C 1974.430298 256.425079 1973.89978 254.744904 1973.369141 253.683594 C 1972.838501 252.622253 1971.866211 252.091797 1970.451172 252.091797 C 1966.73645 252.091797 1963.596191 252.844116 1961.03125 254.347656 C 1958.466431 255.851227 1955.150391 258.459198 1951.082031 262.173828 L 1929.855469 363 L 1891.648438 363 L 1897.822266 333.882813 C 1880.742554 354.354126 1860.729736 364.591797 1837.785156 364.591797 C 1824.695435 364.591797 1814.525757 361.187134 1807.273438 354.376953 C 1803.672729 350.995819 1800.967407 346.664612 1799.154297 341.386719 C 1789.333984 356.856262 1777.005493 364.591797 1762.167969 364.591797 C 1751.200928 364.591797 1742.886963 361.983826 1737.226563 356.765625 C 1731.566162 351.547455 1728.734375 344.072449 1728.734375 334.34375 C 1728.734375 330.09845 1729.266724 325.499725 1730.328125 320.546875 L 1732.449219 310.199219 C 1733.156738 307.192139 1733.511719 303.920563 1733.511719 300.382813 C 1733.511719 291.892212 1730.326904 287.646484 1723.958984 287.646484 C 1721.128784 287.646484 1718.165771 288.443176 1715.070313 290.035156 C 1711.974731 291.627167 1708.3927 294.102051 1704.324219 297.462891 L 1690.527344 363 L 1652.320313 363 L 1655.4375 348.376953 C 1653.179565 350.733948 1650.813721 352.734802 1648.339844 354.376953 C 1638.080444 361.187134 1627.910767 364.591797 1617.828125 364.591797 C 1609.337524 364.591797 1602.481812 361.939453 1597.263672 356.632813 C 1592.04541 351.326172 1589.4375 343.365112 1589.4375 332.751953 C 1589.4375 331.555786 1589.490112 330.259399 1589.59375 328.869141 C 1581.335327 336.301025 1572.17395 342.903412 1562.107422 348.671875 C 1556.977661 354.155396 1550.654419 358.17926 1543.136719 360.744141 C 1535.618896 363.309021 1528.057373 364.591797 1520.451172 364.591797 C 1511.960571 364.591797 1504.796265 362.955994 1498.958984 359.683594 C 1493.121704 356.411163 1488.789185 352.165436 1485.958984 346.947266 C 1483.739014 342.854126 1482.389038 338.625122 1481.910156 334.259766 C 1475.367554 339.532837 1468.315308 344.337799 1460.751953 348.671875 C 1455.622192 354.155396 1449.29895 358.17926 1441.78125 360.744141 C 1434.263428 363.309021 1426.701904 364.591797 1419.095703 364.591797 C 1410.605103 364.591797 1403.440796 362.955994 1397.603516 359.683594 C 1391.766235 356.411163 1387.431763 352.165436 1384.601563 346.947266 C 1384.477905 346.71933 1384.358398 346.490479 1384.240234 346.261719 C 1381.547241 349.558044 1378.703857 352.264038 1375.712891 354.376953 C 1366.07251 361.187134 1356.388916 364.591797 1346.660156 364.591797 C 1339.230835 364.591797 1333.26062 362.514282 1328.75 358.357422 C 1324.23938 354.200562 1321.542603 348.141541 1320.658203 340.181641 C 1315.528442 347.434021 1309.824341 353.315552 1303.544922 357.826172 C 1297.265381 362.336792 1289.790527 364.591797 1281.123047 364.591797 C 1271.040405 364.591797 1262.639648 361.142761 1255.917969 354.244141 C 1252.538574 350.775848 1250.008789 346.322449 1248.328125 340.886719 C 1244.360596 346.711914 1239.991577 351.210114 1235.220703 354.376953 C 1224.961182 361.187134 1214.791626 364.591797 1204.708984 364.591797 C 1196.218384 364.591797 1189.362793 361.939453 1184.144531 356.632813 C 1180.63208 353.060822 1178.304077 348.283295 1177.15625 342.306641 C 1167.434204 357.162537 1155.303955 364.591797 1140.763672 364.591797 Z M 2097.279297 364.591797 C 2086.489014 364.591797 2078.57251 361.71759 2073.53125 355.96875 C 2068.48999 350.21991 2065.96875 343.099854 2065.96875 334.609375 C 2065.96875 330.894714 2066.412598 326.693359 2067.296875 322.005859 C 2068.181396 317.318359 2069.109131 312.763977 2070.082031 308.341797 C 2071.054688 303.919617 2071.718506 301.089783 2072.072266 299.851563 C 2073.487549 293.660522 2074.814697 287.557129 2076.052734 281.542969 C 2077.291016 275.528778 2077.910156 270.665833 2077.910156 266.951172 C 2077.910156 257.929901 2074.725586 253.417969 2068.357422 253.417969 C 2063.758545 253.417969 2059.690186 255.674896 2056.152344 260.185547 C 2052.614502 264.696167 2049.784668 270.575745 2047.662109 277.828125 L 2029.619141 363 L 1991.412109 363 L 2019.537109 230.335938 L 2057.744141 230.335938 L 2054.826172 244.132813 C 2063.670654 234.227112 2074.017578 229.273438 2085.869141 229.273438 C 2094.890381 229.273438 2102.054688 231.750275 2107.361328 236.703125 C 2112.667969 241.655975 2115.320313 249.173248 2115.320313 259.255859 C 2115.320313 264.38559 2114.703125 270.08963 2113.464844 276.369141 C 2112.226563 282.648651 2110.455811 290.299042 2108.15625 299.320313 C 2106.741211 304.803833 2105.460205 310.154846 2104.310547 315.373047 C 2103.160645 320.591248 2102.585938 324.703857 2102.585938 327.710938 C 2102.585938 331.248688 2103.380615 333.989777 2104.972656 335.935547 C 2106.564453 337.881317 2109.307617 338.855469 2113.199219 338.855469 C 2118.505859 338.855469 2122.749756 336.953491 2125.933594 333.150391 C 2129.117676 329.34729 2132.302246 323.465637 2135.486328 315.505859 L 2146.630859 315.505859 C 2140.085938 334.963348 2132.524414 348.009277 2123.945313 354.642578 C 2115.366211 361.275879 2106.477295 364.591797 2097.279297 364.591797 Z M 1410.605469 343.630859 C 1417.150269 343.630859 1422.632446 341.684509 1427.054688 337.792969 C 1431.476807 333.901428 1433.6875 327.622498 1433.6875 318.955078 C 1433.6875 313.648438 1433.156982 306.219849 1432.095703 296.667969 C 1430.326782 276.502899 1429.177124 262.970856 1428.646484 256.072266 C 1424.401245 270.046356 1417.238892 286.76123 1407.15625 306.21875 C 1411.224609 308.3414 1413.257813 311.437439 1413.257813 315.505859 C 1413.257813 318.866699 1412.152466 321.874023 1409.941406 324.527344 C 1407.730225 327.180664 1404.944824 328.507813 1401.583984 328.507813 C 1398.928833 328.507813 1396.951904 327.920898 1395.652344 326.746094 C 1395.308838 327.534637 1394.961914 328.309784 1394.611328 329.070313 C 1395.056152 333.434387 1396.275146 336.785126 1398.267578 339.121094 C 1400.832397 342.128174 1404.945068 343.630859 1410.605469 343.630859 Z M 1511.960938 343.630859 C 1518.505859 343.630859 1523.989868 341.684509 1528.412109 337.792969 C 1532.834229 333.901428 1535.044922 327.622498 1535.044922 318.955078 C 1535.044922 313.648438 1534.514404 306.219818 1533.453125 296.667969 C 1531.684204 276.50293 1530.534546 262.970856 1530.003906 256.072266 C 1525.758667 270.046356 1518.594238 286.761261 1508.511719 306.21875 C 1512.580078 308.3414 1514.613281 311.437439 1514.613281 315.505859 C 1514.613281 318.866699 1513.507935 321.874023 1511.296875 324.527344 C 1509.085693 327.180664 1506.300293 328.507813 1502.939453 328.507813 C 1499.224731 328.507813 1496.83667 327.358124 1495.775391 325.058594 C 1495.775391 331.426544 1497.058105 336.114014 1499.623047 339.121094 C 1502.187866 342.128174 1506.300537 343.630859 1511.960938 343.630859 Z M 1298.371094 338.855469 C 1302.793213 338.855469 1307.170166 336.776001 1311.503906 332.619141 C 1315.837646 328.46228 1318.800659 322.75824 1320.392578 315.505859 L 1333.128906 255.541016 C 1333.128906 253.241486 1332.24353 250.986511 1330.474609 248.775391 C 1328.705811 246.564301 1325.964722 245.458984 1322.25 245.458984 C 1315.174561 245.458984 1308.806885 249.571594 1303.146484 257.796875 C 1297.486084 266.022125 1293.062866 275.927551 1289.878906 287.513672 C 1286.694946 299.099762 1285.103516 309.315826 1285.103516 318.160156 C 1285.103516 327.004486 1286.38623 332.664185 1288.951172 335.140625 C 1291.515991 337.617065 1294.656494 338.855469 1298.371094 338.855469 Z M 1838.316406 296.667969 C 1844.861206 296.314209 1851.097656 294.014832 1857.023438 289.769531 C 1862.949097 285.524231 1867.723389 280.128815 1871.349609 273.583984 C 1874.97583 267.039124 1876.789063 260.141052 1876.789063 252.888672 C 1876.789063 245.636261 1874.578491 242.009766 1870.15625 242.009766 C 1863.78833 242.009766 1857.553833 247.580688 1851.451172 258.724609 C 1845.348633 269.86853 1840.969727 282.516998 1838.316406 296.667969 Z M 1635.869141 216.007813 C 1630.03186 216.007813 1625.0802 213.972687 1621.011719 209.904297 C 1616.943359 205.835876 1614.908203 200.884155 1614.908203 195.046875 C 1614.908203 189.209595 1616.943359 184.211548 1621.011719 180.054688 C 1625.0802 175.897827 1630.03186 173.820313 1635.869141 173.820313 C 1641.706421 173.820313 1646.704468 175.897827 1650.861328 180.054688 C 1655.018188 184.211548 1657.095703 189.209595 1657.095703 195.046875 C 1657.095703 200.884155 1655.018188 205.835876 1650.861328 209.904297 C 1646.704468 213.972687 1641.706421 216.007813 1635.869141 216.007813 Z"/>
            </g>
            <g id="Rubrik">
                <path id="path12" fill="#2b3087" fill-rule="evenodd" stroke="none" d="M 926.258911 360.65332 C 919.183411 360.65332 912.992432 358.84021 907.685791 355.21405 C 902.37915 351.58783 898.355042 346.94458 895.613281 341.28418 C 892.871521 335.623779 891.50061 329.69812 891.50061 323.50708 C 891.50061 312.186249 894.10968 302.85556 899.327881 295.514709 C 904.546082 288.173889 910.8255 282.46933 918.166321 278.400909 C 925.507202 274.332489 934.837891 270.17569 946.158691 265.930389 L 954.118591 262.746429 L 954.118591 248.418579 C 954.118591 242.935059 953.366821 238.778259 951.863281 235.948059 C 950.359741 233.117859 947.662231 231.702789 943.770691 231.702789 C 939.87915 231.702789 937.137451 232.940979 935.545471 235.417419 C 933.953491 237.893829 932.980591 241.431549 932.626831 246.030609 L 931.830811 256.643829 L 894.153931 255.051849 L 894.41925 250.010559 C 895.657471 233.383118 900.69873 221.22226 909.543091 213.527649 C 918.387512 205.833038 930.94635 201.985779 947.219971 201.985779 C 962.255432 201.985779 973.576111 206.142578 981.182251 214.456299 C 988.788452 222.77005 992.591492 234.179138 992.591492 248.683929 L 992.591492 320.05777 C 992.591492 329.786591 992.989441 338.144409 993.785461 345.13147 C 994.581482 352.11853 995.067871 356.40802 995.244751 358 L 959.425171 358 C 958.717651 352.870239 957.567871 345.529541 955.975891 335.9776 C 953.853271 343.053101 950.271301 348.934509 945.230042 353.62207 C 940.188721 358.30957 933.865051 360.65332 926.258911 360.65332 Z M 940.586731 332.262939 C 943.063171 332.262939 945.539551 331.37854 948.015991 329.60968 C 950.492432 327.840759 952.526611 325.80661 954.118591 323.50708 L 954.118591 281.31955 C 946.51239 285.03418 940.321411 289.986969 935.545471 296.17804 C 930.76947 302.36911 928.381531 308.648529 928.381531 315.016479 C 928.381531 320.32312 929.487061 324.524139 931.698181 327.61969 C 933.909302 330.71521 936.87207 332.262939 940.586731 332.262939 Z M 946.689331 194.556549 C 937.844971 194.556549 930.548462 191.991699 924.799561 186.861969 C 919.05072 181.732208 916.176331 174.568359 916.176331 165.370209 C 916.176331 156.172058 919.05072 149.008209 924.799561 143.878448 C 930.548462 138.748718 937.844971 136.183868 946.689331 136.183868 C 955.533752 136.183868 962.918701 138.792938 968.844421 144.011108 C 974.770142 149.229309 977.732971 156.348938 977.732971 165.370209 C 977.732971 174.568359 974.814392 181.732208 968.977112 186.861969 C 963.139771 191.991699 955.710632 194.556549 946.689331 194.556549 Z M 946.689331 179.432709 C 951.111511 179.432709 954.516541 178.106079 956.904541 175.452759 C 959.292542 172.799438 960.486511 169.438629 960.486511 165.370209 C 960.486511 161.124908 959.292542 157.675629 956.904541 155.022339 C 954.516541 152.369019 951.111511 151.042358 946.689331 151.042358 C 942.444031 151.042358 939.127441 152.369019 936.739441 155.022339 C 934.35144 157.675629 933.157471 161.124908 933.157471 165.370209 C 933.157471 169.438629 934.35144 172.799438 936.739441 175.452759 C 939.127441 178.106079 942.444031 179.432709 946.689331 179.432709 Z M 821.71875 404.4328 C 804.029968 404.4328 789.127441 402.5755 777.01062 398.86087 C 764.893799 395.14624 758.83551 387.540161 758.83551 376.04248 C 758.83551 365.252319 766.176208 354.816101 780.85791 344.73349 C 774.136169 342.25705 769.31604 339.42688 766.3974 336.24292 C 763.47876 333.058929 762.01947 329.34436 762.01947 325.09906 C 762.01947 320.146179 763.611389 315.5914 766.79541 311.43454 C 769.97937 307.277649 774.666809 302.7229 780.85791 297.77002 C 775.37439 293.701599 771.17334 288.57193 768.2547 282.380859 C 765.33606 276.189789 763.87677 268.14151 763.87677 258.235809 C 763.87677 239.485718 768.34314 225.42334 777.27594 216.048279 C 786.208801 206.673248 798.900269 201.985779 815.35083 201.985779 C 823.133911 201.985779 829.94397 203.223969 835.78125 205.700409 C 841.618591 208.176849 846.21759 211.714539 849.57843 216.313629 C 852.23175 213.306519 855.41571 210.211029 859.13031 207.027069 C 862.844971 203.843079 866.64801 201.278259 870.539551 199.332489 L 875.84613 196.679169 L 885.39801 216.844299 C 882.39093 217.728729 878.057251 219.409119 872.396851 221.885559 C 866.73645 224.362 862.402771 226.573059 859.395691 228.518829 C 861.341431 231.525909 863.021851 235.682709 864.436951 240.989349 C 865.852051 246.295959 866.55957 252.044739 866.55957 258.235809 C 866.55957 274.686371 862.579651 287.510529 854.619751 296.70871 C 846.65979 305.90686 834.366272 310.505859 817.738831 310.505859 C 809.42511 310.505859 801.907471 309.17926 795.18573 306.52594 C 791.471069 311.30188 789.79071 315.016479 790.14447 317.6698 C 790.32135 320.67688 794.920349 322.71106 803.94165 323.7724 C 807.656311 324.47995 818.180969 325.80658 835.51593 327.75235 C 849.843872 329.52124 860.014771 333.368469 866.028931 339.29422 C 872.043091 345.219971 875.050171 353.754639 875.050171 364.89859 C 875.050171 377.634521 870.937561 387.40741 862.71228 394.21759 C 854.487 401.027771 840.822632 404.4328 821.71875 404.4328 Z M 815.881531 286.09549 C 821.541931 286.09549 825.21228 283.88443 826.8927 279.462219 C 828.57312 275.040039 829.41333 267.43399 829.41333 256.643829 C 829.41333 245.322998 828.617371 237.45163 827.025391 233.029419 C 825.433411 228.607239 821.807251 226.396179 816.146851 226.396179 C 810.309509 226.396179 806.594971 228.695679 805.002991 233.294769 C 803.41095 237.893829 802.61499 245.676788 802.61499 256.643829 C 802.61499 266.90332 803.49939 274.376709 805.268311 279.06424 C 807.03717 283.75177 810.57489 286.09549 815.881531 286.09549 Z M 821.45343 378.69577 C 828.882751 378.69577 834.36615 377.85556 837.903931 376.17511 C 841.44165 374.49469 843.29895 371.70874 843.47583 367.8172 C 844.006531 363.21814 842.989441 359.8573 840.424561 357.73468 C 837.85968 355.612 833.127991 354.10849 826.22937 353.22406 L 803.14563 350.57074 C 800.84613 353.40094 798.988831 356.09845 797.57373 358.66333 C 796.15863 361.22821 795.45105 363.92569 795.45105 366.75592 C 795.45105 371.001221 797.3526 374.05249 801.155701 375.90979 C 804.95874 377.76712 811.724609 378.69577 821.45343 378.69577 Z M 698.074829 143.082458 L 737.87439 143.082458 L 737.87439 358 L 698.074829 358 Z M 586.901489 143.082458 L 635.456909 143.082458 L 676.84845 358 L 636.51825 358 L 628.558289 310.77121 L 594.596069 310.77121 L 586.370789 358 L 545.244629 358 Z M 624.313049 283.70752 L 611.311829 197.209839 L 598.575989 283.70752 Z M 567.001709 81.525848 L 600.167969 81.525848 L 600.167969 118.672089 L 567.001709 118.672089 Z M 622.190369 81.525848 L 655.622009 81.525848 L 655.622009 118.672089 L 622.190369 118.672089 Z"/>
                <path id="path13" fill="#2d68b2" fill-rule="evenodd" stroke="none" d="M 1135.763672 359.591797 C 1124.796631 359.591797 1116.482666 356.983826 1110.822266 351.765625 C 1105.161743 346.547455 1102.332031 339.072571 1102.332031 329.34375 C 1102.332031 325.09845 1102.862549 320.499725 1103.923828 315.546875 L 1106.046875 305.199219 C 1106.754395 302.192139 1107.109375 298.920563 1107.109375 295.382813 C 1107.109375 286.892212 1103.924683 282.646484 1097.556641 282.646484 C 1094.72644 282.646484 1091.76355 283.443176 1088.667969 285.035156 C 1085.57251 286.627167 1081.990356 289.10202 1077.921875 292.462891 L 1064.125 358 L 1025.917969 358 L 1064.390625 177.576172 L 1103.660156 172.269531 L 1083.759766 265.666016 L 1134.96875 225.335938 L 1161.236328 225.335938 L 1108.169922 262.216797 C 1110.823242 261.509247 1113.741821 261.154297 1116.925781 261.154297 C 1126.477661 261.154297 1133.730713 264.072876 1138.683594 269.910156 C 1143.636475 275.747467 1146.111328 283.175995 1146.111328 292.197266 C 1146.111328 295.911926 1145.758301 299.27417 1145.050781 302.28125 L 1142.132813 315.546875 C 1141.248413 318.730835 1140.804688 321.560669 1140.804688 324.037109 C 1140.804688 330.58194 1144.253784 333.855469 1151.152344 333.855469 C 1156.458984 333.855469 1160.704712 331.953491 1163.888672 328.150391 C 1167.072632 324.34729 1170.257446 318.465759 1173.441406 310.505859 L 1201.832031 177.576172 L 1241.099609 172.269531 L 1210.587891 315.546875 C 1209.880371 318.200195 1209.525391 321.030029 1209.525391 324.037109 C 1209.525391 327.57486 1210.366333 330.096069 1212.046875 331.599609 C 1213.727295 333.103149 1216.512817 333.855469 1220.404297 333.855469 C 1225.534058 333.855469 1230.310181 331.687256 1234.732422 327.353516 C 1237.144531 324.989624 1239.187988 322.244202 1240.863281 319.117188 C 1240.845337 318.378662 1240.833984 317.632385 1240.833984 316.873047 C 1240.833984 303.783386 1243.44397 290.031586 1248.662109 275.615234 C 1253.880249 261.198914 1261.663818 248.994171 1272.011719 239 C 1282.359741 229.005859 1294.69751 224.007813 1309.025391 224.007813 C 1316.277832 224.007813 1321.671265 225.246246 1325.208984 227.722656 C 1328.746704 230.199097 1330.515625 233.472595 1330.515625 237.541016 L 1330.515625 239.398438 L 1333.435547 225.335938 L 1371.642578 225.335938 L 1352.539063 315.546875 C 1351.831543 318.200195 1351.476563 321.030029 1351.476563 324.037109 C 1351.476563 331.64325 1355.103027 335.447266 1362.355469 335.447266 C 1367.308228 335.447266 1371.598511 333.147888 1375.224609 328.548828 C 1375.303345 328.449005 1375.380981 328.347229 1375.458984 328.246094 C 1375.390991 327.378906 1375.357422 326.506714 1375.357422 325.628906 C 1375.357422 319.791626 1376.726929 314.706787 1379.46875 310.373047 C 1382.210449 306.039307 1385.528442 302.898865 1389.419922 300.953125 C 1396.318481 288.571014 1402.33313 276.057617 1407.462891 263.410156 C 1412.592651 250.762695 1417.455566 237.097656 1422.054688 222.416016 L 1461.324219 217.109375 C 1462.208618 239.750854 1463.711304 264.249359 1465.833984 290.605469 C 1466.718384 301.218689 1467.162109 308.913483 1467.162109 313.689453 C 1467.162109 317.757874 1466.807129 321.118164 1466.099609 323.771484 C 1470.703369 321.12677 1474.70874 318.591797 1478.119141 316.164063 C 1478.785156 314.104218 1479.687012 312.173523 1480.826172 310.373047 C 1483.567871 306.039307 1486.883789 302.898865 1490.775391 300.953125 C 1497.67395 288.571014 1503.688599 276.057617 1508.818359 263.410156 C 1513.947998 250.762695 1518.812988 237.097656 1523.412109 222.416016 L 1562.679688 217.109375 C 1563.564087 239.750824 1565.068726 264.24939 1567.191406 290.605469 C 1568.075806 301.218658 1568.517578 308.913483 1568.517578 313.689453 C 1568.517578 317.757874 1568.16272 321.118164 1567.455078 323.771484 C 1575.768799 318.995514 1582.138428 314.57428 1586.560547 310.505859 L 1604.601563 225.335938 L 1642.810547 225.335938 L 1623.705078 315.546875 C 1622.997559 318.200195 1622.644531 321.030029 1622.644531 324.037109 C 1622.644531 327.57486 1623.485596 330.096069 1625.166016 331.599609 C 1626.846436 333.103149 1629.631836 333.855469 1633.523438 333.855469 C 1638.653198 333.855469 1643.429443 331.687256 1647.851563 327.353516 C 1652.273804 323.019775 1655.456665 317.40448 1657.402344 310.505859 L 1657.447266 310.505859 L 1685.792969 177.576172 L 1725.0625 172.269531 L 1705.162109 265.666016 L 1756.371094 225.335938 L 1782.638672 225.335938 L 1729.572266 262.216797 C 1732.225586 261.509247 1735.144165 261.154297 1738.328125 261.154297 C 1747.880127 261.154297 1755.133057 264.072876 1760.085938 269.910156 C 1765.038818 275.747467 1767.515625 283.175995 1767.515625 292.197266 C 1767.515625 295.911926 1767.160645 299.27417 1766.453125 302.28125 L 1763.535156 315.546875 C 1762.650635 318.730835 1762.208984 321.560669 1762.208984 324.037109 C 1762.208984 330.58194 1765.658081 333.855469 1772.556641 333.855469 C 1777.863281 333.855469 1782.107056 331.953491 1785.291016 328.150391 C 1787.327393 325.71814 1789.364136 322.431274 1791.400391 318.298828 C 1791.397217 318.001282 1791.394531 317.70517 1791.394531 317.404297 C 1791.394531 305.199158 1793.782593 291.75589 1798.558594 277.074219 C 1803.334473 262.392548 1811.118042 249.701721 1821.908203 239 C 1832.698364 228.298309 1846.405762 222.947266 1863.033203 222.947266 C 1882.490845 222.947266 1892.220703 231.437012 1892.220703 248.417969 C 1892.220703 258.323669 1889.388916 267.434326 1883.728516 275.748047 C 1878.068115 284.061737 1870.550903 290.738007 1861.175781 295.779297 C 1851.800781 300.820587 1841.806641 303.696747 1831.193359 304.404297 C 1830.8396 309.710938 1830.664063 313.246765 1830.664063 315.015625 C 1830.664063 323.682983 1832.166748 329.564636 1835.173828 332.660156 C 1838.180908 335.755676 1843.045898 337.304688 1849.767578 337.304688 C 1859.31958 337.304688 1867.500366 335.094055 1874.310547 330.671875 C 1881.115723 326.25293 1888.58313 319.536621 1896.712891 310.525391 L 1914.773438 225.335938 L 1952.980469 225.335938 L 1949.53125 241.785156 C 1955.54541 236.478516 1960.985229 232.410278 1965.849609 229.580078 C 1970.713989 226.749878 1975.976318 225.335938 1981.636719 225.335938 C 1987.297119 225.335938 1991.762695 227.280334 1995.035156 231.171875 C 1998.307617 235.063385 1999.943359 239.750854 1999.943359 245.234375 C 1999.943359 250.364136 1998.263184 254.874115 1994.902344 258.765625 C 1991.541504 262.657166 1986.854004 264.603516 1980.839844 264.603516 C 1976.948364 264.603516 1974.340332 263.67569 1973.013672 261.818359 C 1971.687012 259.961029 1970.668579 257.26236 1969.960938 253.724609 C 1969.430298 251.425079 1968.89978 249.744904 1968.369141 248.683594 C 1967.838501 247.622253 1966.866211 247.091797 1965.451172 247.091797 C 1961.73645 247.091797 1958.596191 247.844116 1956.03125 249.347656 C 1953.466431 250.851227 1950.150391 253.459198 1946.082031 257.173828 L 1924.855469 358 L 1886.648438 358 L 1892.822266 328.882813 C 1875.742554 349.354126 1855.729736 359.591797 1832.785156 359.591797 C 1819.695435 359.591797 1809.525757 356.187134 1802.273438 349.376953 C 1798.672729 345.995819 1795.967407 341.664612 1794.154297 336.386719 C 1784.333984 351.856262 1772.005493 359.591797 1757.167969 359.591797 C 1746.200928 359.591797 1737.886963 356.983826 1732.226563 351.765625 C 1726.566162 346.547455 1723.734375 339.072449 1723.734375 329.34375 C 1723.734375 325.09845 1724.266724 320.499725 1725.328125 315.546875 L 1727.449219 305.199219 C 1728.156738 302.192139 1728.511719 298.920563 1728.511719 295.382813 C 1728.511719 286.892212 1725.326904 282.646484 1718.958984 282.646484 C 1716.128784 282.646484 1713.165771 283.443176 1710.070313 285.035156 C 1706.974731 286.627167 1703.3927 289.10202 1699.324219 292.462891 L 1685.527344 358 L 1647.320313 358 L 1650.4375 343.376953 C 1648.179565 345.733948 1645.813721 347.734802 1643.339844 349.376953 C 1633.080444 356.187134 1622.910767 359.591797 1612.828125 359.591797 C 1604.337524 359.591797 1597.481812 356.939453 1592.263672 351.632813 C 1587.04541 346.326172 1584.4375 338.365112 1584.4375 327.751953 C 1584.4375 326.555786 1584.490112 325.259399 1584.59375 323.869141 C 1576.335327 331.301025 1567.17395 337.903412 1557.107422 343.671875 C 1551.977661 349.155396 1545.654419 353.17926 1538.136719 355.744141 C 1530.618896 358.309021 1523.057373 359.591797 1515.451172 359.591797 C 1506.960571 359.591797 1499.796265 357.955994 1493.958984 354.683594 C 1488.121704 351.411163 1483.789185 347.165436 1480.958984 341.947266 C 1478.739014 337.854126 1477.389038 333.625122 1476.910156 329.259766 C 1470.367554 334.532837 1463.315308 339.337799 1455.751953 343.671875 C 1450.622192 349.155396 1444.29895 353.17926 1436.78125 355.744141 C 1429.263428 358.309021 1421.701904 359.591797 1414.095703 359.591797 C 1405.605103 359.591797 1398.440796 357.955994 1392.603516 354.683594 C 1386.766235 351.411163 1382.431763 347.165436 1379.601563 341.947266 C 1379.477905 341.71933 1379.358398 341.490479 1379.240234 341.261719 C 1376.547241 344.558044 1373.703857 347.264038 1370.712891 349.376953 C 1361.07251 356.187134 1351.388916 359.591797 1341.660156 359.591797 C 1334.230835 359.591797 1328.26062 357.514282 1323.75 353.357422 C 1319.23938 349.200562 1316.542603 343.141541 1315.658203 335.181641 C 1310.528442 342.434021 1304.824341 348.315552 1298.544922 352.826172 C 1292.265381 357.336792 1284.790527 359.591797 1276.123047 359.591797 C 1266.040405 359.591797 1257.639648 356.142761 1250.917969 349.244141 C 1247.538574 345.775848 1245.008789 341.322449 1243.328125 335.886719 C 1239.360596 341.711914 1234.991577 346.210114 1230.220703 349.376953 C 1219.961182 356.187134 1209.791626 359.591797 1199.708984 359.591797 C 1191.218384 359.591797 1184.362793 356.939453 1179.144531 351.632813 C 1175.63208 348.060822 1173.304077 343.283295 1172.15625 337.306641 C 1162.434204 352.162537 1150.303955 359.591797 1135.763672 359.591797 Z M 2092.279297 359.591797 C 2081.489014 359.591797 2073.57251 356.71759 2068.53125 350.96875 C 2063.48999 345.21991 2060.96875 338.099854 2060.96875 329.609375 C 2060.96875 325.894714 2061.412598 321.693359 2062.296875 317.005859 C 2063.181396 312.318359 2064.109131 307.763977 2065.082031 303.341797 C 2066.054688 298.919617 2066.718506 296.089783 2067.072266 294.851563 C 2068.487549 288.660492 2069.814697 282.557129 2071.052734 276.542969 C 2072.291016 270.528778 2072.910156 265.665833 2072.910156 261.951172 C 2072.910156 252.929901 2069.725586 248.417969 2063.357422 248.417969 C 2058.758545 248.417969 2054.690186 250.674896 2051.152344 255.185547 C 2047.614624 259.696167 2044.78479 265.575745 2042.662109 272.828125 L 2024.619141 358 L 1986.412109 358 L 2014.537109 225.335938 L 2052.744141 225.335938 L 2049.826172 239.132813 C 2058.670654 229.227112 2069.017578 224.273438 2080.869141 224.273438 C 2089.890381 224.273438 2097.054688 226.750275 2102.361328 231.703125 C 2107.667969 236.655975 2110.320313 244.173248 2110.320313 254.255859 C 2110.320313 259.38559 2109.703125 265.08963 2108.464844 271.369141 C 2107.226563 277.648651 2105.455811 285.299042 2103.15625 294.320313 C 2101.741211 299.803833 2100.460205 305.154846 2099.310547 310.373047 C 2098.160645 315.591248 2097.585938 319.703857 2097.585938 322.710938 C 2097.585938 326.248688 2098.380615 328.989777 2099.972656 330.935547 C 2101.564453 332.881317 2104.307617 333.855469 2108.199219 333.855469 C 2113.505859 333.855469 2117.749756 331.953491 2120.933594 328.150391 C 2124.117676 324.34729 2127.302246 318.465637 2130.486328 310.505859 L 2141.630859 310.505859 C 2135.085938 329.963348 2127.524414 343.009277 2118.945313 349.642578 C 2110.366211 356.275879 2101.477295 359.591797 2092.279297 359.591797 Z M 1405.605469 338.630859 C 1412.150269 338.630859 1417.632446 336.684509 1422.054688 332.792969 C 1426.476807 328.901428 1428.6875 322.622498 1428.6875 313.955078 C 1428.6875 308.648438 1428.156982 301.219818 1427.095703 291.667969 C 1425.326782 271.502899 1424.177124 257.970856 1423.646484 251.072266 C 1419.401245 265.046356 1412.238892 281.76123 1402.15625 301.21875 C 1406.224609 303.3414 1408.257813 306.437439 1408.257813 310.505859 C 1408.257813 313.866699 1407.152466 316.874023 1404.941406 319.527344 C 1402.730225 322.180664 1399.944824 323.507813 1396.583984 323.507813 C 1393.928833 323.507813 1391.951904 322.920898 1390.652344 321.746094 C 1390.308838 322.534637 1389.961914 323.309784 1389.611328 324.070313 C 1390.056152 328.434387 1391.275146 331.785126 1393.267578 334.121094 C 1395.832397 337.128174 1399.945068 338.630859 1405.605469 338.630859 Z M 1506.960938 338.630859 C 1513.505859 338.630859 1518.989868 336.684509 1523.412109 332.792969 C 1527.834229 328.901428 1530.044922 322.622498 1530.044922 313.955078 C 1530.044922 308.648438 1529.514404 301.219788 1528.453125 291.667969 C 1526.684204 271.50293 1525.534546 257.970856 1525.003906 251.072266 C 1520.758667 265.046356 1513.594238 281.761261 1503.511719 301.21875 C 1507.580078 303.3414 1509.613281 306.437439 1509.613281 310.505859 C 1509.613281 313.866699 1508.507935 316.874023 1506.296875 319.527344 C 1504.085693 322.180664 1501.300293 323.507813 1497.939453 323.507813 C 1494.224731 323.507813 1491.83667 322.358124 1490.775391 320.058594 C 1490.775391 326.426544 1492.058105 331.114014 1494.623047 334.121094 C 1497.187866 337.128174 1501.300537 338.630859 1506.960938 338.630859 Z M 1293.371094 333.855469 C 1297.793213 333.855469 1302.170166 331.776001 1306.503906 327.619141 C 1310.837646 323.46228 1313.800659 317.75824 1315.392578 310.505859 L 1328.128906 250.541016 C 1328.128906 248.241486 1327.24353 245.986511 1325.474609 243.775391 C 1323.705811 241.564301 1320.964722 240.458984 1317.25 240.458984 C 1310.174561 240.458984 1303.806885 244.571594 1298.146484 252.796875 C 1292.486084 261.022125 1288.062866 270.927551 1284.878906 282.513672 C 1281.694946 294.099823 1280.103516 304.315826 1280.103516 313.160156 C 1280.103516 322.004486 1281.38623 327.664185 1283.951172 330.140625 C 1286.515991 332.617065 1289.656494 333.855469 1293.371094 333.855469 Z M 1833.316406 291.667969 C 1839.861206 291.314178 1846.097656 289.014832 1852.023438 284.769531 C 1857.949097 280.524231 1862.723389 275.128815 1866.349609 268.583984 C 1869.97583 262.039124 1871.789063 255.141052 1871.789063 247.888672 C 1871.789063 240.636261 1869.578491 237.009766 1865.15625 237.009766 C 1858.78833 237.009766 1852.553833 242.580688 1846.451172 253.724609 C 1840.348633 264.86853 1835.969727 277.516968 1833.316406 291.667969 Z M 1630.869141 211.007813 C 1625.03186 211.007813 1620.0802 208.972687 1616.011719 204.904297 C 1611.943359 200.835876 1609.908203 195.884155 1609.908203 190.046875 C 1609.908203 184.209595 1611.943359 179.211548 1616.011719 175.054688 C 1620.0802 170.897827 1625.03186 168.820313 1630.869141 168.820313 C 1636.706421 168.820313 1641.704468 170.897827 1645.861328 175.054688 C 1650.018188 179.211548 1652.095703 184.209595 1652.095703 190.046875 C 1652.095703 195.884155 1650.018188 200.835876 1645.861328 204.904297 C 1641.704468 208.972687 1636.706421 211.007813 1630.869141 211.007813 Z"/>
            </g>
        </g>
    </g>
</svg>
